<svg xmlns="http://www.w3.org/2000/svg" xmlns:xlink="http://www.w3.org/1999/xlink" width="500" zoomAndPan="magnify" viewBox="0 0 375 374.999991" height="500" preserveAspectRatio="xMidYMid meet" version="1.0"><defs><linearGradient x1="0" gradientTransform="matrix(0.75, 0, 0, 0.75, 0.0000045, 0)" y1="0" x2="499.999979" gradientUnits="userSpaceOnUse" y2="499.999979" id="7c8b88993c"><stop stop-opacity="1" stop-color="rgb(26.669312%, 74.899292%, 95.689392%)" offset="0"/><stop stop-opacity="1" stop-color="rgb(26.615906%, 74.765015%, 95.619202%)" offset="0.0078125"/><stop stop-opacity="1" stop-color="rgb(26.507568%, 74.499512%, 95.477295%)" offset="0.015625"/><stop stop-opacity="1" stop-color="rgb(26.400757%, 74.232483%, 95.336914%)" offset="0.0234375"/><stop stop-opacity="1" stop-color="rgb(26.293945%, 73.965454%, 95.195007%)" offset="0.03125"/><stop stop-opacity="1" stop-color="rgb(26.185608%, 73.698425%, 95.054626%)" offset="0.0390625"/><stop stop-opacity="1" stop-color="rgb(26.078796%, 73.432922%, 94.914246%)" offset="0.046875"/><stop stop-opacity="1" stop-color="rgb(25.971985%, 73.165894%, 94.772339%)" offset="0.0546875"/><stop stop-opacity="1" stop-color="rgb(25.865173%, 72.898865%, 94.631958%)" offset="0.0625"/><stop stop-opacity="1" stop-color="rgb(25.756836%, 72.633362%, 94.491577%)" offset="0.0703125"/><stop stop-opacity="1" stop-color="rgb(25.650024%, 72.366333%, 94.34967%)" offset="0.078125"/><stop stop-opacity="1" stop-color="rgb(25.543213%, 72.099304%, 94.20929%)" offset="0.0859375"/><stop stop-opacity="1" stop-color="rgb(25.434875%, 71.833801%, 94.068909%)" offset="0.09375"/><stop stop-opacity="1" stop-color="rgb(25.328064%, 71.566772%, 93.927002%)" offset="0.101562"/><stop stop-opacity="1" stop-color="rgb(25.221252%, 71.299744%, 93.786621%)" offset="0.109375"/><stop stop-opacity="1" stop-color="rgb(25.112915%, 71.034241%, 93.644714%)" offset="0.117188"/><stop stop-opacity="1" stop-color="rgb(25.006104%, 70.767212%, 93.504333%)" offset="0.125"/><stop stop-opacity="1" stop-color="rgb(24.899292%, 70.500183%, 93.363953%)" offset="0.132812"/><stop stop-opacity="1" stop-color="rgb(24.79248%, 70.233154%, 93.222046%)" offset="0.140625"/><stop stop-opacity="1" stop-color="rgb(24.684143%, 69.967651%, 93.081665%)" offset="0.148437"/><stop stop-opacity="1" stop-color="rgb(24.577332%, 69.700623%, 92.941284%)" offset="0.15625"/><stop stop-opacity="1" stop-color="rgb(24.47052%, 69.433594%, 92.799377%)" offset="0.164062"/><stop stop-opacity="1" stop-color="rgb(24.362183%, 69.168091%, 92.658997%)" offset="0.171875"/><stop stop-opacity="1" stop-color="rgb(24.255371%, 68.901062%, 92.518616%)" offset="0.179687"/><stop stop-opacity="1" stop-color="rgb(24.14856%, 68.634033%, 92.376709%)" offset="0.1875"/><stop stop-opacity="1" stop-color="rgb(24.041748%, 68.36853%, 92.236328%)" offset="0.195312"/><stop stop-opacity="1" stop-color="rgb(23.933411%, 68.101501%, 92.094421%)" offset="0.203125"/><stop stop-opacity="1" stop-color="rgb(23.826599%, 67.834473%, 91.954041%)" offset="0.210938"/><stop stop-opacity="1" stop-color="rgb(23.719788%, 67.56897%, 91.81366%)" offset="0.21875"/><stop stop-opacity="1" stop-color="rgb(23.61145%, 67.301941%, 91.671753%)" offset="0.226562"/><stop stop-opacity="1" stop-color="rgb(23.504639%, 67.034912%, 91.531372%)" offset="0.234375"/><stop stop-opacity="1" stop-color="rgb(23.397827%, 66.767883%, 91.390991%)" offset="0.242188"/><stop stop-opacity="1" stop-color="rgb(23.28949%, 66.50238%, 91.249084%)" offset="0.25"/><stop stop-opacity="1" stop-color="rgb(23.182678%, 66.235352%, 91.108704%)" offset="0.257812"/><stop stop-opacity="1" stop-color="rgb(23.075867%, 65.968323%, 90.966797%)" offset="0.265625"/><stop stop-opacity="1" stop-color="rgb(22.969055%, 65.70282%, 90.826416%)" offset="0.273437"/><stop stop-opacity="1" stop-color="rgb(22.860718%, 65.435791%, 90.686035%)" offset="0.28125"/><stop stop-opacity="1" stop-color="rgb(22.753906%, 65.168762%, 90.544128%)" offset="0.289062"/><stop stop-opacity="1" stop-color="rgb(22.647095%, 64.903259%, 90.403748%)" offset="0.296875"/><stop stop-opacity="1" stop-color="rgb(22.538757%, 64.63623%, 90.263367%)" offset="0.304687"/><stop stop-opacity="1" stop-color="rgb(22.431946%, 64.369202%, 90.12146%)" offset="0.3125"/><stop stop-opacity="1" stop-color="rgb(22.325134%, 64.102173%, 89.981079%)" offset="0.320312"/><stop stop-opacity="1" stop-color="rgb(22.216797%, 63.83667%, 89.840698%)" offset="0.328125"/><stop stop-opacity="1" stop-color="rgb(22.109985%, 63.569641%, 89.698792%)" offset="0.335937"/><stop stop-opacity="1" stop-color="rgb(22.003174%, 63.302612%, 89.558411%)" offset="0.34375"/><stop stop-opacity="1" stop-color="rgb(21.896362%, 63.037109%, 89.416504%)" offset="0.351562"/><stop stop-opacity="1" stop-color="rgb(21.788025%, 62.770081%, 89.276123%)" offset="0.359375"/><stop stop-opacity="1" stop-color="rgb(21.681213%, 62.503052%, 89.135742%)" offset="0.367187"/><stop stop-opacity="1" stop-color="rgb(21.574402%, 62.237549%, 88.993835%)" offset="0.375"/><stop stop-opacity="1" stop-color="rgb(21.466064%, 61.97052%, 88.853455%)" offset="0.382812"/><stop stop-opacity="1" stop-color="rgb(21.359253%, 61.703491%, 88.713074%)" offset="0.390625"/><stop stop-opacity="1" stop-color="rgb(21.252441%, 61.437988%, 88.571167%)" offset="0.398438"/><stop stop-opacity="1" stop-color="rgb(21.144104%, 61.170959%, 88.430786%)" offset="0.40625"/><stop stop-opacity="1" stop-color="rgb(21.037292%, 60.903931%, 88.290405%)" offset="0.414062"/><stop stop-opacity="1" stop-color="rgb(20.930481%, 60.636902%, 88.148499%)" offset="0.421875"/><stop stop-opacity="1" stop-color="rgb(20.823669%, 60.371399%, 88.008118%)" offset="0.429688"/><stop stop-opacity="1" stop-color="rgb(20.715332%, 60.10437%, 87.866211%)" offset="0.4375"/><stop stop-opacity="1" stop-color="rgb(20.608521%, 59.837341%, 87.72583%)" offset="0.445312"/><stop stop-opacity="1" stop-color="rgb(20.501709%, 59.571838%, 87.585449%)" offset="0.453125"/><stop stop-opacity="1" stop-color="rgb(20.393372%, 59.30481%, 87.443542%)" offset="0.460938"/><stop stop-opacity="1" stop-color="rgb(20.28656%, 59.037781%, 87.303162%)" offset="0.46875"/><stop stop-opacity="1" stop-color="rgb(20.179749%, 58.772278%, 87.162781%)" offset="0.476562"/><stop stop-opacity="1" stop-color="rgb(20.072937%, 58.505249%, 87.020874%)" offset="0.484375"/><stop stop-opacity="1" stop-color="rgb(19.9646%, 58.23822%, 86.880493%)" offset="0.492188"/><stop stop-opacity="1" stop-color="rgb(19.857788%, 57.972717%, 86.740112%)" offset="0.5"/><stop stop-opacity="1" stop-color="rgb(19.750977%, 57.705688%, 86.598206%)" offset="0.507812"/><stop stop-opacity="1" stop-color="rgb(19.642639%, 57.43866%, 86.457825%)" offset="0.515625"/><stop stop-opacity="1" stop-color="rgb(19.535828%, 57.171631%, 86.315918%)" offset="0.523437"/><stop stop-opacity="1" stop-color="rgb(19.429016%, 56.906128%, 86.175537%)" offset="0.53125"/><stop stop-opacity="1" stop-color="rgb(19.320679%, 56.639099%, 86.035156%)" offset="0.539062"/><stop stop-opacity="1" stop-color="rgb(19.213867%, 56.37207%, 85.89325%)" offset="0.546875"/><stop stop-opacity="1" stop-color="rgb(19.107056%, 56.106567%, 85.752869%)" offset="0.554687"/><stop stop-opacity="1" stop-color="rgb(19.000244%, 55.839539%, 85.612488%)" offset="0.5625"/><stop stop-opacity="1" stop-color="rgb(18.891907%, 55.57251%, 85.470581%)" offset="0.570312"/><stop stop-opacity="1" stop-color="rgb(18.785095%, 55.307007%, 85.3302%)" offset="0.578125"/><stop stop-opacity="1" stop-color="rgb(18.678284%, 55.039978%, 85.189819%)" offset="0.585937"/><stop stop-opacity="1" stop-color="rgb(18.569946%, 54.772949%, 85.047913%)" offset="0.59375"/><stop stop-opacity="1" stop-color="rgb(18.463135%, 54.50592%, 84.907532%)" offset="0.601562"/><stop stop-opacity="1" stop-color="rgb(18.356323%, 54.240417%, 84.765625%)" offset="0.609375"/><stop stop-opacity="1" stop-color="rgb(18.247986%, 53.973389%, 84.625244%)" offset="0.617187"/><stop stop-opacity="1" stop-color="rgb(18.141174%, 53.70636%, 84.484863%)" offset="0.625"/><stop stop-opacity="1" stop-color="rgb(18.034363%, 53.440857%, 84.342957%)" offset="0.632812"/><stop stop-opacity="1" stop-color="rgb(17.927551%, 53.173828%, 84.202576%)" offset="0.640625"/><stop stop-opacity="1" stop-color="rgb(17.819214%, 52.906799%, 84.062195%)" offset="0.648437"/><stop stop-opacity="1" stop-color="rgb(17.712402%, 52.641296%, 83.920288%)" offset="0.65625"/><stop stop-opacity="1" stop-color="rgb(17.605591%, 52.374268%, 83.779907%)" offset="0.664062"/><stop stop-opacity="1" stop-color="rgb(17.497253%, 52.107239%, 83.639526%)" offset="0.671875"/><stop stop-opacity="1" stop-color="rgb(17.390442%, 51.841736%, 83.49762%)" offset="0.679687"/><stop stop-opacity="1" stop-color="rgb(17.28363%, 51.574707%, 83.357239%)" offset="0.6875"/><stop stop-opacity="1" stop-color="rgb(17.175293%, 51.307678%, 83.215332%)" offset="0.695312"/><stop stop-opacity="1" stop-color="rgb(17.068481%, 51.040649%, 83.074951%)" offset="0.703125"/><stop stop-opacity="1" stop-color="rgb(16.96167%, 50.775146%, 82.93457%)" offset="0.710937"/><stop stop-opacity="1" stop-color="rgb(16.854858%, 50.508118%, 82.792664%)" offset="0.71875"/><stop stop-opacity="1" stop-color="rgb(16.746521%, 50.241089%, 82.652283%)" offset="0.726562"/><stop stop-opacity="1" stop-color="rgb(16.639709%, 49.975586%, 82.511902%)" offset="0.734375"/><stop stop-opacity="1" stop-color="rgb(16.532898%, 49.708557%, 82.369995%)" offset="0.742187"/><stop stop-opacity="1" stop-color="rgb(16.424561%, 49.441528%, 82.229614%)" offset="0.75"/><stop stop-opacity="1" stop-color="rgb(16.317749%, 49.176025%, 82.089233%)" offset="0.757812"/><stop stop-opacity="1" stop-color="rgb(16.210938%, 48.908997%, 81.947327%)" offset="0.765625"/><stop stop-opacity="1" stop-color="rgb(16.1026%, 48.641968%, 81.806946%)" offset="0.773438"/><stop stop-opacity="1" stop-color="rgb(15.995789%, 48.376465%, 81.665039%)" offset="0.78125"/><stop stop-opacity="1" stop-color="rgb(15.888977%, 48.109436%, 81.524658%)" offset="0.789062"/><stop stop-opacity="1" stop-color="rgb(15.782166%, 47.842407%, 81.384277%)" offset="0.796875"/><stop stop-opacity="1" stop-color="rgb(15.673828%, 47.575378%, 81.242371%)" offset="0.804688"/><stop stop-opacity="1" stop-color="rgb(15.567017%, 47.309875%, 81.10199%)" offset="0.8125"/><stop stop-opacity="1" stop-color="rgb(15.460205%, 47.042847%, 80.961609%)" offset="0.820312"/><stop stop-opacity="1" stop-color="rgb(15.351868%, 46.775818%, 80.819702%)" offset="0.828125"/><stop stop-opacity="1" stop-color="rgb(15.245056%, 46.510315%, 80.679321%)" offset="0.835938"/><stop stop-opacity="1" stop-color="rgb(15.138245%, 46.243286%, 80.53894%)" offset="0.84375"/><stop stop-opacity="1" stop-color="rgb(15.031433%, 45.976257%, 80.397034%)" offset="0.851562"/><stop stop-opacity="1" stop-color="rgb(14.923096%, 45.710754%, 80.256653%)" offset="0.859375"/><stop stop-opacity="1" stop-color="rgb(14.816284%, 45.443726%, 80.114746%)" offset="0.867188"/><stop stop-opacity="1" stop-color="rgb(14.709473%, 45.176697%, 79.974365%)" offset="0.875"/><stop stop-opacity="1" stop-color="rgb(14.601135%, 44.909668%, 79.833984%)" offset="0.882812"/><stop stop-opacity="1" stop-color="rgb(14.494324%, 44.644165%, 79.692078%)" offset="0.890625"/><stop stop-opacity="1" stop-color="rgb(14.387512%, 44.377136%, 79.551697%)" offset="0.898438"/><stop stop-opacity="1" stop-color="rgb(14.279175%, 44.110107%, 79.411316%)" offset="0.90625"/><stop stop-opacity="1" stop-color="rgb(14.172363%, 43.844604%, 79.269409%)" offset="0.914062"/><stop stop-opacity="1" stop-color="rgb(14.065552%, 43.577576%, 79.129028%)" offset="0.921875"/><stop stop-opacity="1" stop-color="rgb(13.95874%, 43.310547%, 78.987122%)" offset="0.929688"/><stop stop-opacity="1" stop-color="rgb(13.850403%, 43.045044%, 78.846741%)" offset="0.9375"/><stop stop-opacity="1" stop-color="rgb(13.743591%, 42.778015%, 78.70636%)" offset="0.945312"/><stop stop-opacity="1" stop-color="rgb(13.63678%, 42.510986%, 78.564453%)" offset="0.953125"/><stop stop-opacity="1" stop-color="rgb(13.528442%, 42.245483%, 78.424072%)" offset="0.960938"/><stop stop-opacity="1" stop-color="rgb(13.421631%, 41.978455%, 78.283691%)" offset="0.96875"/><stop stop-opacity="1" stop-color="rgb(13.314819%, 41.711426%, 78.141785%)" offset="0.976562"/><stop stop-opacity="1" stop-color="rgb(13.206482%, 41.444397%, 78.001404%)" offset="0.984375"/><stop stop-opacity="1" stop-color="rgb(13.09967%, 41.178894%, 77.861023%)" offset="0.992188"/><stop stop-opacity="1" stop-color="rgb(12.992859%, 40.911865%, 77.719116%)" offset="1"/></linearGradient><clipPath id="fd1d345eee"><path d="M 99 1 L 143.679688 1 L 143.679688 127 L 99 127 Z M 99 1 " clip-rule="nonzero"/></clipPath><clipPath id="c236f14928"><path d="M 1.886719 38 L 41 38 L 41 122 L 1.886719 122 Z M 1.886719 38 " clip-rule="nonzero"/></clipPath><clipPath id="7f47480f99"><path d="M 1.886719 11.265625 L 1.886719 129.632812 C 1.886719 131.222656 2.519531 132.75 3.644531 133.875 C 4.769531 135 6.296875 135.632812 7.886719 135.632812 L 36.582031 135.632812 C 38.171875 135.632812 39.699219 135 40.824219 133.875 C 41.949219 132.75 42.582031 131.222656 42.582031 129.632812 L 42.582031 11.265625 C 42.582031 9.675781 41.949219 8.148438 40.824219 7.023438 C 39.699219 5.898438 38.171875 5.265625 36.582031 5.265625 L 7.886719 5.265625 C 6.296875 5.265625 4.769531 5.898438 3.644531 7.023438 C 2.519531 8.148438 1.886719 9.675781 1.886719 11.265625 Z M 1.886719 11.265625 " clip-rule="nonzero"/></clipPath><clipPath id="2de4b991f6"><path d="M 61.316406 130 L 106 130 L 106 256 L 61.316406 256 Z M 61.316406 130 " clip-rule="nonzero"/></clipPath><clipPath id="ec76ea9f21"><path d="M 164 135 L 203.097656 135 L 203.097656 219 L 164 219 Z M 164 135 " clip-rule="nonzero"/></clipPath><clipPath id="f3eff66898"><path d="M 203.097656 247.222656 L 203.097656 125.855469 C 203.097656 123.371094 201.082031 121.355469 198.597656 121.355469 L 166.902344 121.355469 C 164.417969 121.355469 162.402344 123.371094 162.402344 125.855469 L 162.402344 247.222656 C 162.402344 249.707031 164.417969 251.722656 166.902344 251.722656 L 198.597656 251.722656 C 201.082031 251.722656 203.097656 249.707031 203.097656 247.222656 Z M 203.097656 247.222656 " clip-rule="nonzero"/></clipPath><clipPath id="75a7d9914c"><rect x="0" width="205" y="0" height="257"/></clipPath><clipPath id="eb15335c30"><path d="M 4.058594 4.058594 L 54.941406 4.058594 L 54.941406 54.941406 L 4.058594 54.941406 Z M 4.058594 4.058594 " clip-rule="nonzero"/></clipPath><clipPath id="c21d79d88a"><path d="M 29.5 4.058594 C 15.449219 4.058594 4.058594 15.449219 4.058594 29.5 C 4.058594 43.550781 15.449219 54.941406 29.5 54.941406 C 43.550781 54.941406 54.941406 43.550781 54.941406 29.5 C 54.941406 15.449219 43.550781 4.058594 29.5 4.058594 Z M 29.5 4.058594 " clip-rule="nonzero"/></clipPath><clipPath id="984e14fda9"><path d="M 0.0585938 0.0585938 L 50.941406 0.0585938 L 50.941406 50.941406 L 0.0585938 50.941406 Z M 0.0585938 0.0585938 " clip-rule="nonzero"/></clipPath><clipPath id="00deae6956"><path d="M 25.5 0.0585938 C 11.449219 0.0585938 0.0585938 11.449219 0.0585938 25.5 C 0.0585938 39.550781 11.449219 50.941406 25.5 50.941406 C 39.550781 50.941406 50.941406 39.550781 50.941406 25.5 C 50.941406 11.449219 39.550781 0.0585938 25.5 0.0585938 Z M 25.5 0.0585938 " clip-rule="nonzero"/></clipPath><clipPath id="25301dbc46"><rect x="0" width="51" y="0" height="51"/></clipPath><clipPath id="26164268b5"><path d="M 4.058594 4.058594 L 54.667969 4.058594 L 54.667969 54.667969 L 4.058594 54.667969 Z M 4.058594 4.058594 " clip-rule="nonzero"/></clipPath><clipPath id="24621d41e4"><path d="M 29.496094 4.058594 C 15.445312 4.058594 4.058594 15.445312 4.058594 29.496094 C 4.058594 43.542969 15.445312 54.929688 29.496094 54.929688 C 43.542969 54.929688 54.929688 43.542969 54.929688 29.496094 C 54.929688 15.445312 43.542969 4.058594 29.496094 4.058594 Z M 29.496094 4.058594 " clip-rule="nonzero"/></clipPath><linearGradient x1="0.000000000000014211" gradientTransform="matrix(0.376953, 0, 0, 0.376953, 0.000000000000009548, -0.000000000000005107)" y1="0.000000000000014211" x2="63.668374" gradientUnits="userSpaceOnUse" y2="63.668374" id="79046c6c8a"><stop stop-opacity="1" stop-color="rgb(26.669312%, 74.899292%, 95.689392%)" offset="0"/><stop stop-opacity="1" stop-color="rgb(26.615906%, 74.766541%, 95.619202%)" offset="0.0078125"/><stop stop-opacity="1" stop-color="rgb(26.509094%, 74.501038%, 95.478821%)" offset="0.015625"/><stop stop-opacity="1" stop-color="rgb(26.402283%, 74.235535%, 95.33844%)" offset="0.0234375"/><stop stop-opacity="1" stop-color="rgb(26.295471%, 73.971558%, 95.198059%)" offset="0.03125"/><stop stop-opacity="1" stop-color="rgb(26.18866%, 73.706055%, 95.057678%)" offset="0.0390625"/><stop stop-opacity="1" stop-color="rgb(26.081848%, 73.440552%, 94.917297%)" offset="0.046875"/><stop stop-opacity="1" stop-color="rgb(25.975037%, 73.175049%, 94.778442%)" offset="0.0546875"/><stop stop-opacity="1" stop-color="rgb(25.868225%, 72.909546%, 94.638062%)" offset="0.0625"/><stop stop-opacity="1" stop-color="rgb(25.761414%, 72.645569%, 94.497681%)" offset="0.0703125"/><stop stop-opacity="1" stop-color="rgb(25.656128%, 72.380066%, 94.3573%)" offset="0.078125"/><stop stop-opacity="1" stop-color="rgb(25.549316%, 72.114563%, 94.216919%)" offset="0.0859375"/><stop stop-opacity="1" stop-color="rgb(25.442505%, 71.84906%, 94.076538%)" offset="0.09375"/><stop stop-opacity="1" stop-color="rgb(25.335693%, 71.583557%, 93.936157%)" offset="0.101562"/><stop stop-opacity="1" stop-color="rgb(25.228882%, 71.31958%, 93.795776%)" offset="0.109375"/><stop stop-opacity="1" stop-color="rgb(25.12207%, 71.054077%, 93.655396%)" offset="0.117188"/><stop stop-opacity="1" stop-color="rgb(25.015259%, 70.788574%, 93.516541%)" offset="0.125"/><stop stop-opacity="1" stop-color="rgb(24.908447%, 70.523071%, 93.37616%)" offset="0.132812"/><stop stop-opacity="1" stop-color="rgb(24.801636%, 70.259094%, 93.235779%)" offset="0.140625"/><stop stop-opacity="1" stop-color="rgb(24.694824%, 69.993591%, 93.095398%)" offset="0.148438"/><stop stop-opacity="1" stop-color="rgb(24.588013%, 69.728088%, 92.955017%)" offset="0.15625"/><stop stop-opacity="1" stop-color="rgb(24.481201%, 69.462585%, 92.814636%)" offset="0.164063"/><stop stop-opacity="1" stop-color="rgb(24.37439%, 69.197083%, 92.674255%)" offset="0.171875"/><stop stop-opacity="1" stop-color="rgb(24.267578%, 68.933105%, 92.533875%)" offset="0.179688"/><stop stop-opacity="1" stop-color="rgb(24.160767%, 68.667603%, 92.39502%)" offset="0.1875"/><stop stop-opacity="1" stop-color="rgb(24.055481%, 68.4021%, 92.254639%)" offset="0.195312"/><stop stop-opacity="1" stop-color="rgb(23.948669%, 68.136597%, 92.114258%)" offset="0.203125"/><stop stop-opacity="1" stop-color="rgb(23.841858%, 67.871094%, 91.973877%)" offset="0.210938"/><stop stop-opacity="1" stop-color="rgb(23.735046%, 67.607117%, 91.833496%)" offset="0.21875"/><stop stop-opacity="1" stop-color="rgb(23.628235%, 67.341614%, 91.693115%)" offset="0.226562"/><stop stop-opacity="1" stop-color="rgb(23.521423%, 67.076111%, 91.552734%)" offset="0.234375"/><stop stop-opacity="1" stop-color="rgb(23.414612%, 66.810608%, 91.412354%)" offset="0.242188"/><stop stop-opacity="1" stop-color="rgb(23.3078%, 66.545105%, 91.271973%)" offset="0.25"/><stop stop-opacity="1" stop-color="rgb(23.200989%, 66.281128%, 91.133118%)" offset="0.257812"/><stop stop-opacity="1" stop-color="rgb(23.094177%, 66.015625%, 90.992737%)" offset="0.265625"/><stop stop-opacity="1" stop-color="rgb(22.987366%, 65.750122%, 90.852356%)" offset="0.273438"/><stop stop-opacity="1" stop-color="rgb(22.880554%, 65.484619%, 90.711975%)" offset="0.28125"/><stop stop-opacity="1" stop-color="rgb(22.773743%, 65.220642%, 90.571594%)" offset="0.289062"/><stop stop-opacity="1" stop-color="rgb(22.666931%, 64.955139%, 90.431213%)" offset="0.296875"/><stop stop-opacity="1" stop-color="rgb(22.56012%, 64.689636%, 90.290833%)" offset="0.304688"/><stop stop-opacity="1" stop-color="rgb(22.454834%, 64.424133%, 90.150452%)" offset="0.3125"/><stop stop-opacity="1" stop-color="rgb(22.348022%, 64.15863%, 90.010071%)" offset="0.320312"/><stop stop-opacity="1" stop-color="rgb(22.241211%, 63.894653%, 89.871216%)" offset="0.328125"/><stop stop-opacity="1" stop-color="rgb(22.134399%, 63.62915%, 89.730835%)" offset="0.335938"/><stop stop-opacity="1" stop-color="rgb(22.027588%, 63.363647%, 89.590454%)" offset="0.34375"/><stop stop-opacity="1" stop-color="rgb(21.920776%, 63.098145%, 89.450073%)" offset="0.351562"/><stop stop-opacity="1" stop-color="rgb(21.813965%, 62.832642%, 89.309692%)" offset="0.359375"/><stop stop-opacity="1" stop-color="rgb(21.707153%, 62.568665%, 89.169312%)" offset="0.367188"/><stop stop-opacity="1" stop-color="rgb(21.600342%, 62.303162%, 89.028931%)" offset="0.375"/><stop stop-opacity="1" stop-color="rgb(21.49353%, 62.037659%, 88.88855%)" offset="0.382812"/><stop stop-opacity="1" stop-color="rgb(21.386719%, 61.772156%, 88.748169%)" offset="0.390625"/><stop stop-opacity="1" stop-color="rgb(21.279907%, 61.508179%, 88.609314%)" offset="0.398438"/><stop stop-opacity="1" stop-color="rgb(21.173096%, 61.242676%, 88.468933%)" offset="0.40625"/><stop stop-opacity="1" stop-color="rgb(21.066284%, 60.977173%, 88.328552%)" offset="0.414062"/><stop stop-opacity="1" stop-color="rgb(20.959473%, 60.71167%, 88.188171%)" offset="0.421875"/><stop stop-opacity="1" stop-color="rgb(20.854187%, 60.446167%, 88.047791%)" offset="0.429688"/><stop stop-opacity="1" stop-color="rgb(20.747375%, 60.18219%, 87.90741%)" offset="0.4375"/><stop stop-opacity="1" stop-color="rgb(20.640564%, 59.916687%, 87.767029%)" offset="0.445312"/><stop stop-opacity="1" stop-color="rgb(20.533752%, 59.651184%, 87.626648%)" offset="0.453125"/><stop stop-opacity="1" stop-color="rgb(20.426941%, 59.385681%, 87.486267%)" offset="0.460938"/><stop stop-opacity="1" stop-color="rgb(20.320129%, 59.120178%, 87.347412%)" offset="0.46875"/><stop stop-opacity="1" stop-color="rgb(20.213318%, 58.856201%, 87.207031%)" offset="0.476562"/><stop stop-opacity="1" stop-color="rgb(20.106506%, 58.590698%, 87.06665%)" offset="0.484375"/><stop stop-opacity="1" stop-color="rgb(19.999695%, 58.325195%, 86.92627%)" offset="0.492188"/><stop stop-opacity="1" stop-color="rgb(19.892883%, 58.059692%, 86.785889%)" offset="0.5"/><stop stop-opacity="1" stop-color="rgb(19.839478%, 57.926941%, 86.715698%)" offset="0.5"/><stop stop-opacity="1" stop-color="rgb(19.786072%, 57.794189%, 86.645508%)" offset="0.5"/><stop stop-opacity="1" stop-color="rgb(19.732666%, 57.662964%, 86.575317%)" offset="0.507812"/><stop stop-opacity="1" stop-color="rgb(19.67926%, 57.530212%, 86.505127%)" offset="0.515625"/><stop stop-opacity="1" stop-color="rgb(19.572449%, 57.264709%, 86.364746%)" offset="0.523438"/><stop stop-opacity="1" stop-color="rgb(19.465637%, 56.999207%, 86.225891%)" offset="0.53125"/><stop stop-opacity="1" stop-color="rgb(19.358826%, 56.733704%, 86.08551%)" offset="0.539063"/><stop stop-opacity="1" stop-color="rgb(19.25354%, 56.469727%, 85.945129%)" offset="0.546875"/><stop stop-opacity="1" stop-color="rgb(19.146729%, 56.204224%, 85.804749%)" offset="0.554688"/><stop stop-opacity="1" stop-color="rgb(19.039917%, 55.938721%, 85.664368%)" offset="0.5625"/><stop stop-opacity="1" stop-color="rgb(18.933105%, 55.673218%, 85.523987%)" offset="0.570313"/><stop stop-opacity="1" stop-color="rgb(18.826294%, 55.407715%, 85.383606%)" offset="0.578125"/><stop stop-opacity="1" stop-color="rgb(18.719482%, 55.143738%, 85.243225%)" offset="0.585938"/><stop stop-opacity="1" stop-color="rgb(18.612671%, 54.878235%, 85.102844%)" offset="0.59375"/><stop stop-opacity="1" stop-color="rgb(18.505859%, 54.612732%, 84.963989%)" offset="0.601563"/><stop stop-opacity="1" stop-color="rgb(18.399048%, 54.347229%, 84.823608%)" offset="0.609375"/><stop stop-opacity="1" stop-color="rgb(18.292236%, 54.081726%, 84.683228%)" offset="0.617188"/><stop stop-opacity="1" stop-color="rgb(18.185425%, 53.817749%, 84.542847%)" offset="0.625"/><stop stop-opacity="1" stop-color="rgb(18.078613%, 53.552246%, 84.402466%)" offset="0.632812"/><stop stop-opacity="1" stop-color="rgb(17.971802%, 53.286743%, 84.262085%)" offset="0.640625"/><stop stop-opacity="1" stop-color="rgb(17.86499%, 53.02124%, 84.121704%)" offset="0.648438"/><stop stop-opacity="1" stop-color="rgb(17.758179%, 52.755737%, 83.981323%)" offset="0.65625"/><stop stop-opacity="1" stop-color="rgb(17.652893%, 52.49176%, 83.840942%)" offset="0.664062"/><stop stop-opacity="1" stop-color="rgb(17.546082%, 52.226257%, 83.702087%)" offset="0.671875"/><stop stop-opacity="1" stop-color="rgb(17.43927%, 51.960754%, 83.561707%)" offset="0.679688"/><stop stop-opacity="1" stop-color="rgb(17.332458%, 51.695251%, 83.421326%)" offset="0.6875"/><stop stop-opacity="1" stop-color="rgb(17.225647%, 51.431274%, 83.280945%)" offset="0.695312"/><stop stop-opacity="1" stop-color="rgb(17.118835%, 51.165771%, 83.140564%)" offset="0.703125"/><stop stop-opacity="1" stop-color="rgb(17.012024%, 50.900269%, 83.000183%)" offset="0.710938"/><stop stop-opacity="1" stop-color="rgb(16.905212%, 50.634766%, 82.859802%)" offset="0.71875"/><stop stop-opacity="1" stop-color="rgb(16.798401%, 50.369263%, 82.719421%)" offset="0.726562"/><stop stop-opacity="1" stop-color="rgb(16.691589%, 50.105286%, 82.579041%)" offset="0.734375"/><stop stop-opacity="1" stop-color="rgb(16.584778%, 49.839783%, 82.440186%)" offset="0.742188"/><stop stop-opacity="1" stop-color="rgb(16.477966%, 49.57428%, 82.299805%)" offset="0.75"/><stop stop-opacity="1" stop-color="rgb(16.371155%, 49.308777%, 82.159424%)" offset="0.757812"/><stop stop-opacity="1" stop-color="rgb(16.264343%, 49.043274%, 82.019043%)" offset="0.765625"/><stop stop-opacity="1" stop-color="rgb(16.157532%, 48.779297%, 81.878662%)" offset="0.773438"/><stop stop-opacity="1" stop-color="rgb(16.052246%, 48.513794%, 81.738281%)" offset="0.78125"/><stop stop-opacity="1" stop-color="rgb(15.945435%, 48.248291%, 81.5979%)" offset="0.789062"/><stop stop-opacity="1" stop-color="rgb(15.838623%, 47.982788%, 81.45752%)" offset="0.796875"/><stop stop-opacity="1" stop-color="rgb(15.731812%, 47.717285%, 81.318665%)" offset="0.804688"/><stop stop-opacity="1" stop-color="rgb(15.625%, 47.453308%, 81.178284%)" offset="0.8125"/><stop stop-opacity="1" stop-color="rgb(15.518188%, 47.187805%, 81.037903%)" offset="0.820312"/><stop stop-opacity="1" stop-color="rgb(15.411377%, 46.922302%, 80.897522%)" offset="0.828125"/><stop stop-opacity="1" stop-color="rgb(15.304565%, 46.656799%, 80.757141%)" offset="0.835938"/><stop stop-opacity="1" stop-color="rgb(15.197754%, 46.392822%, 80.61676%)" offset="0.84375"/><stop stop-opacity="1" stop-color="rgb(15.090942%, 46.127319%, 80.476379%)" offset="0.851562"/><stop stop-opacity="1" stop-color="rgb(14.984131%, 45.861816%, 80.335999%)" offset="0.859375"/><stop stop-opacity="1" stop-color="rgb(14.877319%, 45.596313%, 80.195618%)" offset="0.867188"/><stop stop-opacity="1" stop-color="rgb(14.770508%, 45.330811%, 80.056763%)" offset="0.875"/><stop stop-opacity="1" stop-color="rgb(14.663696%, 45.066833%, 79.916382%)" offset="0.882812"/><stop stop-opacity="1" stop-color="rgb(14.556885%, 44.801331%, 79.776001%)" offset="0.890625"/><stop stop-opacity="1" stop-color="rgb(14.451599%, 44.535828%, 79.63562%)" offset="0.898438"/><stop stop-opacity="1" stop-color="rgb(14.344788%, 44.270325%, 79.495239%)" offset="0.90625"/><stop stop-opacity="1" stop-color="rgb(14.237976%, 44.004822%, 79.354858%)" offset="0.914062"/><stop stop-opacity="1" stop-color="rgb(14.131165%, 43.740845%, 79.214478%)" offset="0.921875"/><stop stop-opacity="1" stop-color="rgb(14.024353%, 43.475342%, 79.074097%)" offset="0.929688"/><stop stop-opacity="1" stop-color="rgb(13.917542%, 43.209839%, 78.933716%)" offset="0.9375"/><stop stop-opacity="1" stop-color="rgb(13.81073%, 42.944336%, 78.794861%)" offset="0.945312"/><stop stop-opacity="1" stop-color="rgb(13.703918%, 42.678833%, 78.65448%)" offset="0.953125"/><stop stop-opacity="1" stop-color="rgb(13.597107%, 42.414856%, 78.514099%)" offset="0.960938"/><stop stop-opacity="1" stop-color="rgb(13.490295%, 42.149353%, 78.373718%)" offset="0.96875"/><stop stop-opacity="1" stop-color="rgb(13.383484%, 41.88385%, 78.233337%)" offset="0.976562"/><stop stop-opacity="1" stop-color="rgb(13.276672%, 41.618347%, 78.092957%)" offset="0.984375"/><stop stop-opacity="1" stop-color="rgb(13.169861%, 41.35437%, 77.952576%)" offset="0.992188"/><stop stop-opacity="1" stop-color="rgb(13.063049%, 41.088867%, 77.812195%)" offset="1"/></linearGradient><clipPath id="4443bfcf1b"><path d="M 14.867188 14.867188 L 44.386719 14.867188 L 44.386719 44.386719 L 14.867188 44.386719 Z M 14.867188 14.867188 " clip-rule="nonzero"/></clipPath><clipPath id="3758ee3ba7"><rect x="0" width="59" y="0" height="59"/></clipPath></defs><rect x="-37.5" width="450" fill="#ffffff" y="-37.499999" height="449.999989" fill-opacity="1"/><rect x="-37.5" fill="url(#7c8b88993c)" width="450" y="-37.499999" height="449.999989"/><g transform="matrix(1, 0, 0, 1, 85, 59)"><g clip-path="url(#75a7d9914c)"><g clip-path="url(#fd1d345eee)"><path fill="#ffffff" d="M 142.910156 38.375 C 142.984375 37.207031 142.988281 36.0625 142.910156 34.949219 C 142.910156 34.871094 142.910156 34.792969 142.910156 34.714844 C 142.5 27.753906 139.191406 22.480469 133.445312 18.6875 C 127.097656 14.496094 120.796875 10.226562 114.285156 6.296875 C 111.625 4.691406 109.058594 2.851562 106.082031 1.734375 C 106.066406 1.726562 106.039062 1.710938 106.023438 1.699219 C 105.117188 1.21875 104.253906 1.027344 103.464844 1.066406 C 102.195312 0.984375 101.308594 1.445312 100.773438 2.550781 C 100.210938 3.324219 99.851562 4.367188 99.777344 5.625 C 99.757812 5.96875 100.261719 118.363281 100.144531 125.867188 C 100.757812 126.808594 101.390625 126.191406 101.941406 125.835938 C 110.414062 120.378906 118.875 114.90625 127.339844 109.4375 C 135.484375 105.410156 142.035156 100 142.851562 90.179688 C 143.179688 86.199219 142.910156 42.449219 142.910156 38.375 Z M 142.910156 38.375 " fill-opacity="1" fill-rule="nonzero"/></g><g clip-path="url(#c236f14928)"><g clip-path="url(#7f47480f99)"><path fill="#ffffff" d="M 33.828125 57.3125 C 33.054688 56.667969 8.695312 40.621094 6.292969 39.347656 C 3.277344 37.746094 0.707031 39.472656 0.503906 42.984375 C 0.453125 43.804688 0.714844 83.003906 0.734375 85.648438 C 0.40625 90.808594 1.953125 95.289062 5.601562 99.003906 C 7.371094 100.820312 39.898438 121.28125 39.929688 121.214844 C 40.464844 120.730469 40.664062 77.65625 40.300781 75.234375 C 41.234375 68.144531 39.476562 62.023438 33.828125 57.3125 Z M 33.828125 57.3125 " fill-opacity="1" fill-rule="nonzero"/></g></g><path fill="#ffffff" d="M 91.621094 124.355469 C 91.667969 117.09375 91.78125 61.535156 91.75 60.980469 C 91.5 54.683594 88.941406 49.472656 83.726562 45.992188 C 74.738281 40 54.949219 27.683594 54.289062 27.425781 C 53.53125 27.085938 52.804688 26.941406 52.136719 26.972656 C 51.527344 26.980469 50.996094 27.132812 50.539062 27.433594 C 49.34375 28.132812 48.542969 29.570312 48.429688 31.53125 C 48.386719 32.269531 48.539062 123.417969 48.5 126.871094 C 48.484375 128.261719 48.777344 129.085938 50.167969 129.902344 C 55.511719 133.042969 60.761719 136.363281 65.929688 139.789062 C 68.960938 141.796875 71.71875 141.742188 74.703125 139.777344 C 79.160156 136.84375 83.589844 133.832031 88.261719 131.273438 C 91.273438 129.625 92.496094 127.632812 91.621094 124.355469 Z M 91.621094 124.355469 " fill-opacity="1" fill-rule="nonzero"/><g clip-path="url(#2de4b991f6)"><path fill="#ffffff" d="M 62.085938 218.613281 C 62.011719 219.78125 62.007812 220.921875 62.085938 222.035156 C 62.085938 222.113281 62.085938 222.191406 62.085938 222.269531 C 62.496094 229.230469 65.804688 234.507812 71.550781 238.296875 C 77.898438 242.488281 84.199219 246.761719 90.710938 250.691406 C 93.371094 252.296875 95.9375 254.132812 98.914062 255.253906 C 98.929688 255.261719 98.957031 255.277344 98.972656 255.285156 C 99.878906 255.765625 100.742188 255.960938 101.53125 255.917969 C 102.800781 256 103.6875 255.539062 104.222656 254.433594 C 104.785156 253.660156 105.144531 252.621094 105.21875 251.359375 C 105.238281 251.019531 104.734375 138.621094 104.851562 131.117188 C 104.238281 130.179688 103.605469 130.796875 103.054688 131.148438 C 94.582031 136.605469 86.121094 142.078125 77.65625 147.546875 C 69.511719 151.578125 62.960938 156.984375 62.144531 166.804688 C 61.816406 170.785156 62.085938 214.535156 62.085938 218.613281 Z M 62.085938 218.613281 " fill-opacity="1" fill-rule="nonzero"/></g><g clip-path="url(#ec76ea9f21)"><g clip-path="url(#f3eff66898)"><path fill="#ffffff" d="M 171.152344 199.675781 C 171.929688 200.324219 196.289062 216.367188 198.691406 217.644531 C 201.707031 219.242188 204.277344 217.515625 204.480469 214.003906 C 204.527344 213.183594 204.269531 173.984375 204.25 171.34375 C 204.578125 166.179688 203.03125 161.699219 199.382812 157.984375 C 197.613281 156.167969 165.085938 135.707031 165.054688 135.773438 C 164.515625 136.257812 164.320312 179.332031 164.683594 181.753906 C 163.75 188.84375 165.507812 194.964844 171.152344 199.675781 Z M 171.152344 199.675781 " fill-opacity="1" fill-rule="nonzero"/></g></g><path fill="#ffffff" d="M 113.375 132.621094 C 113.324219 139.882812 113.214844 195.441406 113.246094 195.996094 C 113.496094 202.292969 116.050781 207.503906 121.269531 210.984375 C 130.257812 216.976562 150.046875 229.292969 150.707031 229.550781 C 151.464844 229.890625 152.1875 230.035156 152.855469 230.003906 C 153.464844 229.996094 154 229.84375 154.453125 229.542969 C 155.648438 228.84375 156.449219 227.40625 156.566406 225.445312 C 156.609375 224.707031 156.457031 133.558594 156.492188 130.105469 C 156.507812 128.714844 156.21875 127.890625 154.828125 127.074219 C 149.480469 123.933594 144.234375 120.613281 139.0625 117.1875 C 136.03125 115.179688 133.277344 115.234375 130.292969 117.199219 C 125.835938 120.132812 121.402344 123.144531 116.730469 125.703125 C 113.71875 127.351562 112.5 129.34375 113.375 132.621094 Z M 113.375 132.621094 " fill-opacity="1" fill-rule="nonzero"/></g></g><g transform="matrix(1, 0, 0, 1, 158, 158)"><g clip-path="url(#3758ee3ba7)"><g clip-path="url(#eb15335c30)"><g clip-path="url(#c21d79d88a)"><g transform="matrix(1, 0, 0, 1, 4, 4)"><g clip-path="url(#25301dbc46)"><g clip-path="url(#984e14fda9)"><g clip-path="url(#00deae6956)"><path fill="#ffffff" d="M 0.0585938 0.0585938 L 50.941406 0.0585938 L 50.941406 50.941406 L 0.0585938 50.941406 Z M 0.0585938 0.0585938 " fill-opacity="1" fill-rule="nonzero"/></g></g></g></g></g></g><g clip-path="url(#26164268b5)"><g clip-path="url(#24621d41e4)"><path stroke-linecap="butt" transform="matrix(2.108721, 0, 0, 2.108721, 4.058031, 4.058012)" fill="none" stroke-linejoin="miter" d="M 12.063265 0.000275959 C 5.400089 0.000275959 0.000266882 5.400098 0.000266882 12.063274 C 0.000266882 18.724598 5.400089 24.12442 12.063265 24.12442 C 18.724589 24.12442 24.124411 18.724598 24.124411 12.063274 C 24.124411 5.400098 18.724589 0.000275959 12.063265 0.000275959 Z M 12.063265 0.000275959 " stroke="url(#79046c6c8a)" stroke-width="0.711332" stroke-miterlimit="4"/></g></g><g clip-path="url(#4443bfcf1b)"><path fill="#009cdf" d="M 44.125 27.527344 L 44.125 31.460938 C 44.125 31.773438 44.066406 32.070312 43.945312 32.359375 C 43.828125 32.644531 43.65625 32.898438 43.4375 33.117188 C 43.21875 33.335938 42.964844 33.507812 42.679688 33.625 C 42.390625 33.742188 42.09375 33.804688 41.785156 33.804688 L 33.804688 33.804688 L 33.804688 41.785156 C 33.804688 42.09375 33.742188 42.390625 33.625 42.679688 C 33.507812 42.964844 33.335938 43.21875 33.117188 43.4375 C 32.898438 43.65625 32.644531 43.828125 32.359375 43.945312 C 32.070312 44.066406 31.773438 44.125 31.460938 44.125 L 27.527344 44.125 C 27.214844 44.125 26.917969 44.066406 26.632812 43.945312 C 26.34375 43.828125 26.089844 43.65625 25.871094 43.4375 C 25.652344 43.21875 25.484375 42.964844 25.363281 42.679688 C 25.246094 42.390625 25.1875 42.09375 25.1875 41.785156 L 25.1875 33.804688 L 17.207031 33.804688 C 16.894531 33.804688 16.597656 33.742188 16.308594 33.625 C 16.023438 33.507812 15.769531 33.335938 15.550781 33.117188 C 15.332031 32.898438 15.164062 32.644531 15.042969 32.359375 C 14.925781 32.070312 14.867188 31.773438 14.867188 31.460938 L 14.867188 27.527344 C 14.867188 27.214844 14.925781 26.917969 15.042969 26.632812 C 15.164062 26.34375 15.332031 26.089844 15.550781 25.871094 C 15.769531 25.652344 16.023438 25.484375 16.308594 25.363281 C 16.597656 25.246094 16.894531 25.1875 17.207031 25.1875 L 25.1875 25.1875 L 25.1875 17.207031 C 25.1875 16.894531 25.246094 16.597656 25.363281 16.308594 C 25.484375 16.023438 25.652344 15.769531 25.871094 15.550781 C 26.089844 15.332031 26.34375 15.164062 26.632812 15.042969 C 26.917969 14.925781 27.214844 14.867188 27.527344 14.867188 L 31.460938 14.867188 C 31.773438 14.867188 32.070312 14.925781 32.359375 15.042969 C 32.644531 15.164062 32.898438 15.332031 33.117188 15.550781 C 33.335938 15.769531 33.507812 16.023438 33.625 16.308594 C 33.742188 16.597656 33.804688 16.894531 33.804688 17.207031 L 33.804688 25.1875 L 41.785156 25.1875 C 42.09375 25.1875 42.390625 25.246094 42.679688 25.363281 C 42.964844 25.484375 43.21875 25.652344 43.4375 25.871094 C 43.65625 26.089844 43.828125 26.34375 43.945312 26.632812 C 44.066406 26.917969 44.125 27.214844 44.125 27.527344 Z M 44.125 27.527344 " fill-opacity="1" fill-rule="nonzero"/></g></g></g></svg>