<svg xmlns="http://www.w3.org/2000/svg" xmlns:xlink="http://www.w3.org/1999/xlink" width="500" zoomAndPan="magnify" viewBox="0 0 375 374.999991" height="500" preserveAspectRatio="xMidYMid meet" version="1.0"><defs><g/><clipPath id="17a8df1a6b"><path d="M 34.367188 9 L 35 9 L 35 47.648438 L 34.367188 47.648438 Z M 34.367188 9 " clip-rule="nonzero"/></clipPath><clipPath id="d55273d890"><path d="M 35 1.0625 L 50.414062 1.0625 L 50.414062 45 L 35 45 Z M 35 1.0625 " clip-rule="nonzero"/></clipPath><clipPath id="28ed257383"><path d="M 1.5 14 L 15 14 L 15 43 L 1.5 43 Z M 1.5 14 " clip-rule="nonzero"/></clipPath><clipPath id="24396e72fd"><path d="M 1.5 8.542969 L 1.5 41.515625 C 1.5 43.105469 2.132812 44.632812 3.257812 45.757812 C 4.382812 46.882812 5.910156 47.515625 7.5 47.515625 L 9.539062 47.515625 C 11.128906 47.515625 12.65625 46.882812 13.78125 45.757812 C 14.90625 44.632812 15.539062 43.105469 15.539062 41.515625 L 15.539062 8.542969 C 15.539062 6.953125 14.90625 5.425781 13.78125 4.300781 C 12.65625 3.175781 11.128906 2.542969 9.539062 2.542969 L 7.5 2.542969 C 5.910156 2.542969 4.382812 3.175781 3.257812 4.300781 C 2.132812 5.425781 1.5 6.953125 1.5 8.542969 Z M 1.5 8.542969 " clip-rule="nonzero"/></clipPath><clipPath id="abebea8741"><path d="M 15 10 L 15.476562 10 L 15.476562 47.578125 L 15 47.578125 Z M 15 10 " clip-rule="nonzero"/></clipPath><clipPath id="752696b8a8"><path d="M 1.5 8.542969 L 1.5 41.515625 C 1.5 43.105469 2.132812 44.632812 3.257812 45.757812 C 4.382812 46.882812 5.910156 47.515625 7.5 47.515625 L 9.539062 47.515625 C 11.128906 47.515625 12.65625 46.882812 13.78125 45.757812 C 14.90625 44.632812 15.539062 43.105469 15.539062 41.515625 L 15.539062 8.542969 C 15.539062 6.953125 14.90625 5.425781 13.78125 4.300781 C 12.65625 3.175781 11.128906 2.542969 9.539062 2.542969 L 7.5 2.542969 C 5.910156 2.542969 4.382812 3.175781 3.257812 4.300781 C 2.132812 5.425781 1.5 6.953125 1.5 8.542969 Z M 1.5 8.542969 " clip-rule="nonzero"/></clipPath><clipPath id="1a1a0a9b64"><path d="M 17.355469 10 L 33 10 L 33 49.773438 L 17.355469 49.773438 Z M 17.355469 10 " clip-rule="nonzero"/></clipPath><clipPath id="e8777f79af"><path d="M 33 1.117188 L 33.398438 1.117188 L 33.398438 45 L 33 45 Z M 33 1.117188 " clip-rule="nonzero"/></clipPath><clipPath id="2feda697e9"><path d="M 38 42.457031 L 38.046875 42.457031 L 38.046875 81 L 38 81 Z M 38 42.457031 " clip-rule="nonzero"/></clipPath><clipPath id="19d8f9a5c9"><path d="M 22.003906 45 L 38 45 L 38 89.042969 L 22.003906 89.042969 Z M 22.003906 45 " clip-rule="nonzero"/></clipPath><clipPath id="d58d891745"><path d="M 57 47 L 70.910156 47 L 70.910156 77 L 57 77 Z M 57 47 " clip-rule="nonzero"/></clipPath><clipPath id="ac5ff8a824"><path d="M 70.910156 83.0625 L 70.910156 47.089844 C 70.910156 45.898438 70.4375 44.753906 69.59375 43.910156 C 68.75 43.066406 67.605469 42.589844 66.410156 42.589844 L 61.375 42.589844 C 60.179688 42.589844 59.035156 43.066406 58.191406 43.910156 C 57.347656 44.753906 56.875 45.898438 56.875 47.089844 L 56.875 83.0625 C 56.875 84.257812 57.347656 85.402344 58.191406 86.246094 C 59.035156 87.089844 60.179688 87.5625 61.375 87.5625 L 66.410156 87.5625 C 67.605469 87.5625 68.75 87.089844 69.59375 86.246094 C 70.4375 85.402344 70.910156 84.257812 70.910156 83.0625 Z M 70.910156 83.0625 " clip-rule="nonzero"/></clipPath><clipPath id="16a3e2ac1f"><path d="M 56.9375 42.53125 L 57 42.53125 L 57 80 L 56.9375 80 Z M 56.9375 42.53125 " clip-rule="nonzero"/></clipPath><clipPath id="8a53a3a2c2"><path d="M 70.910156 83.0625 L 70.910156 47.089844 C 70.910156 45.898438 70.4375 44.753906 69.59375 43.910156 C 68.75 43.066406 67.605469 42.589844 66.410156 42.589844 L 61.375 42.589844 C 60.179688 42.589844 59.035156 43.066406 58.191406 43.910156 C 57.347656 44.753906 56.875 45.898438 56.875 47.089844 L 56.875 83.0625 C 56.875 84.257812 57.347656 85.402344 58.191406 86.246094 C 59.035156 87.089844 60.179688 87.5625 61.375 87.5625 L 66.410156 87.5625 C 67.605469 87.5625 68.75 87.089844 69.59375 86.246094 C 70.4375 85.402344 70.910156 84.257812 70.910156 83.0625 Z M 70.910156 83.0625 " clip-rule="nonzero"/></clipPath><clipPath id="14f93659fa"><path d="M 39.015625 40.328125 L 55 40.328125 L 55 81 L 39.015625 81 Z M 39.015625 40.328125 " clip-rule="nonzero"/></clipPath><clipPath id="7bb4bdd91b"><rect x="0" width="72" y="0" height="90"/></clipPath><clipPath id="08de11e5b1"><path d="M 63.160156 175.007812 L 81.257812 175.007812 L 81.257812 193.105469 L 63.160156 193.105469 Z M 63.160156 175.007812 " clip-rule="nonzero"/></clipPath><clipPath id="7b7460d195"><path d="M 72.207031 175.007812 C 67.210938 175.007812 63.160156 179.058594 63.160156 184.054688 C 63.160156 189.054688 67.210938 193.105469 72.207031 193.105469 C 77.207031 193.105469 81.257812 189.054688 81.257812 184.054688 C 81.257812 179.058594 77.207031 175.007812 72.207031 175.007812 Z M 72.207031 175.007812 " clip-rule="nonzero"/></clipPath><clipPath id="dbc09df986"><path d="M 0.160156 0.0078125 L 18.257812 0.0078125 L 18.257812 18.105469 L 0.160156 18.105469 Z M 0.160156 0.0078125 " clip-rule="nonzero"/></clipPath><clipPath id="151ae83b0e"><path d="M 9.207031 0.0078125 C 4.210938 0.0078125 0.160156 4.058594 0.160156 9.054688 C 0.160156 14.054688 4.210938 18.105469 9.207031 18.105469 C 14.207031 18.105469 18.257812 14.054688 18.257812 9.054688 C 18.257812 4.058594 14.207031 0.0078125 9.207031 0.0078125 Z M 9.207031 0.0078125 " clip-rule="nonzero"/></clipPath><clipPath id="6ab8f5e551"><rect x="0" width="19" y="0" height="19"/></clipPath><clipPath id="717040fb00"><path d="M 63.160156 175.007812 L 81.160156 175.007812 L 81.160156 193.007812 L 63.160156 193.007812 Z M 63.160156 175.007812 " clip-rule="nonzero"/></clipPath><clipPath id="0c0cf0645a"><path d="M 72.207031 175.007812 C 67.210938 175.007812 63.160156 179.058594 63.160156 184.054688 C 63.160156 189.050781 67.210938 193.101562 72.207031 193.101562 C 77.203125 193.101562 81.253906 189.050781 81.253906 184.054688 C 81.253906 179.058594 77.203125 175.007812 72.207031 175.007812 Z M 72.207031 175.007812 " clip-rule="nonzero"/></clipPath><linearGradient x1="-0.0000196728" gradientTransform="matrix(0.376953, 0, 0, 0.376953, 0.000000308889, 0.0000145226)" y1="-0.0000196728" x2="63.668372" gradientUnits="userSpaceOnUse" y2="63.668372" id="a91612ff32"><stop stop-opacity="1" stop-color="rgb(26.669312%, 74.899292%, 95.689392%)" offset="0"/><stop stop-opacity="1" stop-color="rgb(26.615906%, 74.766541%, 95.619202%)" offset="0.0078125"/><stop stop-opacity="1" stop-color="rgb(26.509094%, 74.501038%, 95.478821%)" offset="0.015625"/><stop stop-opacity="1" stop-color="rgb(26.402283%, 74.235535%, 95.33844%)" offset="0.0234375"/><stop stop-opacity="1" stop-color="rgb(26.295471%, 73.971558%, 95.198059%)" offset="0.03125"/><stop stop-opacity="1" stop-color="rgb(26.18866%, 73.706055%, 95.057678%)" offset="0.0390625"/><stop stop-opacity="1" stop-color="rgb(26.081848%, 73.440552%, 94.917297%)" offset="0.046875"/><stop stop-opacity="1" stop-color="rgb(25.975037%, 73.175049%, 94.778442%)" offset="0.0546875"/><stop stop-opacity="1" stop-color="rgb(25.868225%, 72.909546%, 94.638062%)" offset="0.0625"/><stop stop-opacity="1" stop-color="rgb(25.761414%, 72.645569%, 94.497681%)" offset="0.0703125"/><stop stop-opacity="1" stop-color="rgb(25.656128%, 72.380066%, 94.3573%)" offset="0.078125"/><stop stop-opacity="1" stop-color="rgb(25.549316%, 72.114563%, 94.216919%)" offset="0.0859375"/><stop stop-opacity="1" stop-color="rgb(25.442505%, 71.84906%, 94.076538%)" offset="0.09375"/><stop stop-opacity="1" stop-color="rgb(25.335693%, 71.583557%, 93.936157%)" offset="0.101562"/><stop stop-opacity="1" stop-color="rgb(25.228882%, 71.31958%, 93.795776%)" offset="0.109375"/><stop stop-opacity="1" stop-color="rgb(25.12207%, 71.054077%, 93.655396%)" offset="0.117188"/><stop stop-opacity="1" stop-color="rgb(25.015259%, 70.788574%, 93.516541%)" offset="0.125"/><stop stop-opacity="1" stop-color="rgb(24.908447%, 70.523071%, 93.37616%)" offset="0.132812"/><stop stop-opacity="1" stop-color="rgb(24.801636%, 70.259094%, 93.235779%)" offset="0.140625"/><stop stop-opacity="1" stop-color="rgb(24.694824%, 69.993591%, 93.095398%)" offset="0.148438"/><stop stop-opacity="1" stop-color="rgb(24.588013%, 69.728088%, 92.955017%)" offset="0.15625"/><stop stop-opacity="1" stop-color="rgb(24.481201%, 69.462585%, 92.814636%)" offset="0.164063"/><stop stop-opacity="1" stop-color="rgb(24.37439%, 69.197083%, 92.674255%)" offset="0.171875"/><stop stop-opacity="1" stop-color="rgb(24.267578%, 68.933105%, 92.533875%)" offset="0.179688"/><stop stop-opacity="1" stop-color="rgb(24.160767%, 68.667603%, 92.39502%)" offset="0.1875"/><stop stop-opacity="1" stop-color="rgb(24.055481%, 68.4021%, 92.254639%)" offset="0.195313"/><stop stop-opacity="1" stop-color="rgb(23.948669%, 68.136597%, 92.114258%)" offset="0.203125"/><stop stop-opacity="1" stop-color="rgb(23.841858%, 67.871094%, 91.973877%)" offset="0.210938"/><stop stop-opacity="1" stop-color="rgb(23.735046%, 67.607117%, 91.833496%)" offset="0.21875"/><stop stop-opacity="1" stop-color="rgb(23.628235%, 67.341614%, 91.693115%)" offset="0.226563"/><stop stop-opacity="1" stop-color="rgb(23.521423%, 67.076111%, 91.552734%)" offset="0.234375"/><stop stop-opacity="1" stop-color="rgb(23.414612%, 66.810608%, 91.412354%)" offset="0.242188"/><stop stop-opacity="1" stop-color="rgb(23.3078%, 66.546631%, 91.271973%)" offset="0.25"/><stop stop-opacity="1" stop-color="rgb(23.200989%, 66.281128%, 91.133118%)" offset="0.257812"/><stop stop-opacity="1" stop-color="rgb(23.094177%, 66.015625%, 90.992737%)" offset="0.265625"/><stop stop-opacity="1" stop-color="rgb(22.987366%, 65.750122%, 90.852356%)" offset="0.273438"/><stop stop-opacity="1" stop-color="rgb(22.880554%, 65.484619%, 90.711975%)" offset="0.28125"/><stop stop-opacity="1" stop-color="rgb(22.773743%, 65.220642%, 90.571594%)" offset="0.289062"/><stop stop-opacity="1" stop-color="rgb(22.666931%, 64.955139%, 90.431213%)" offset="0.296875"/><stop stop-opacity="1" stop-color="rgb(22.56012%, 64.689636%, 90.290833%)" offset="0.304688"/><stop stop-opacity="1" stop-color="rgb(22.454834%, 64.424133%, 90.150452%)" offset="0.3125"/><stop stop-opacity="1" stop-color="rgb(22.348022%, 64.15863%, 90.010071%)" offset="0.320313"/><stop stop-opacity="1" stop-color="rgb(22.241211%, 63.894653%, 89.871216%)" offset="0.328125"/><stop stop-opacity="1" stop-color="rgb(22.134399%, 63.62915%, 89.730835%)" offset="0.335938"/><stop stop-opacity="1" stop-color="rgb(22.027588%, 63.363647%, 89.590454%)" offset="0.34375"/><stop stop-opacity="1" stop-color="rgb(21.920776%, 63.098145%, 89.450073%)" offset="0.351562"/><stop stop-opacity="1" stop-color="rgb(21.813965%, 62.832642%, 89.309692%)" offset="0.359375"/><stop stop-opacity="1" stop-color="rgb(21.707153%, 62.568665%, 89.169312%)" offset="0.367188"/><stop stop-opacity="1" stop-color="rgb(21.600342%, 62.303162%, 89.028931%)" offset="0.375"/><stop stop-opacity="1" stop-color="rgb(21.49353%, 62.037659%, 88.88855%)" offset="0.382813"/><stop stop-opacity="1" stop-color="rgb(21.386719%, 61.772156%, 88.748169%)" offset="0.390625"/><stop stop-opacity="1" stop-color="rgb(21.279907%, 61.508179%, 88.609314%)" offset="0.398438"/><stop stop-opacity="1" stop-color="rgb(21.173096%, 61.242676%, 88.468933%)" offset="0.40625"/><stop stop-opacity="1" stop-color="rgb(21.066284%, 60.977173%, 88.328552%)" offset="0.414062"/><stop stop-opacity="1" stop-color="rgb(20.959473%, 60.71167%, 88.188171%)" offset="0.421875"/><stop stop-opacity="1" stop-color="rgb(20.854187%, 60.446167%, 88.047791%)" offset="0.429688"/><stop stop-opacity="1" stop-color="rgb(20.747375%, 60.18219%, 87.90741%)" offset="0.4375"/><stop stop-opacity="1" stop-color="rgb(20.640564%, 59.916687%, 87.767029%)" offset="0.445312"/><stop stop-opacity="1" stop-color="rgb(20.533752%, 59.651184%, 87.626648%)" offset="0.453125"/><stop stop-opacity="1" stop-color="rgb(20.426941%, 59.385681%, 87.487793%)" offset="0.460938"/><stop stop-opacity="1" stop-color="rgb(20.320129%, 59.120178%, 87.347412%)" offset="0.46875"/><stop stop-opacity="1" stop-color="rgb(20.213318%, 58.856201%, 87.207031%)" offset="0.476562"/><stop stop-opacity="1" stop-color="rgb(20.106506%, 58.590698%, 87.06665%)" offset="0.484375"/><stop stop-opacity="1" stop-color="rgb(19.999695%, 58.325195%, 86.92627%)" offset="0.492188"/><stop stop-opacity="1" stop-color="rgb(19.892883%, 58.059692%, 86.785889%)" offset="0.5"/><stop stop-opacity="1" stop-color="rgb(19.839478%, 57.926941%, 86.715698%)" offset="0.5"/><stop stop-opacity="1" stop-color="rgb(19.786072%, 57.794189%, 86.645508%)" offset="0.5"/><stop stop-opacity="1" stop-color="rgb(19.732666%, 57.662964%, 86.575317%)" offset="0.507812"/><stop stop-opacity="1" stop-color="rgb(19.67926%, 57.530212%, 86.505127%)" offset="0.515625"/><stop stop-opacity="1" stop-color="rgb(19.572449%, 57.264709%, 86.364746%)" offset="0.523437"/><stop stop-opacity="1" stop-color="rgb(19.465637%, 56.999207%, 86.225891%)" offset="0.53125"/><stop stop-opacity="1" stop-color="rgb(19.358826%, 56.733704%, 86.08551%)" offset="0.539062"/><stop stop-opacity="1" stop-color="rgb(19.25354%, 56.469727%, 85.945129%)" offset="0.546875"/><stop stop-opacity="1" stop-color="rgb(19.146729%, 56.204224%, 85.804749%)" offset="0.554688"/><stop stop-opacity="1" stop-color="rgb(19.039917%, 55.938721%, 85.664368%)" offset="0.5625"/><stop stop-opacity="1" stop-color="rgb(18.933105%, 55.673218%, 85.523987%)" offset="0.570312"/><stop stop-opacity="1" stop-color="rgb(18.826294%, 55.407715%, 85.383606%)" offset="0.578125"/><stop stop-opacity="1" stop-color="rgb(18.719482%, 55.143738%, 85.243225%)" offset="0.585938"/><stop stop-opacity="1" stop-color="rgb(18.612671%, 54.878235%, 85.102844%)" offset="0.59375"/><stop stop-opacity="1" stop-color="rgb(18.505859%, 54.612732%, 84.963989%)" offset="0.601562"/><stop stop-opacity="1" stop-color="rgb(18.399048%, 54.347229%, 84.823608%)" offset="0.609375"/><stop stop-opacity="1" stop-color="rgb(18.292236%, 54.081726%, 84.683228%)" offset="0.617188"/><stop stop-opacity="1" stop-color="rgb(18.185425%, 53.817749%, 84.542847%)" offset="0.625"/><stop stop-opacity="1" stop-color="rgb(18.078613%, 53.552246%, 84.402466%)" offset="0.632813"/><stop stop-opacity="1" stop-color="rgb(17.971802%, 53.286743%, 84.262085%)" offset="0.640625"/><stop stop-opacity="1" stop-color="rgb(17.86499%, 53.02124%, 84.121704%)" offset="0.648438"/><stop stop-opacity="1" stop-color="rgb(17.758179%, 52.755737%, 83.981323%)" offset="0.65625"/><stop stop-opacity="1" stop-color="rgb(17.652893%, 52.49176%, 83.840942%)" offset="0.664063"/><stop stop-opacity="1" stop-color="rgb(17.546082%, 52.226257%, 83.702087%)" offset="0.671875"/><stop stop-opacity="1" stop-color="rgb(17.43927%, 51.960754%, 83.561707%)" offset="0.679688"/><stop stop-opacity="1" stop-color="rgb(17.332458%, 51.695251%, 83.421326%)" offset="0.6875"/><stop stop-opacity="1" stop-color="rgb(17.225647%, 51.431274%, 83.280945%)" offset="0.695313"/><stop stop-opacity="1" stop-color="rgb(17.118835%, 51.165771%, 83.140564%)" offset="0.703125"/><stop stop-opacity="1" stop-color="rgb(17.012024%, 50.900269%, 83.000183%)" offset="0.710938"/><stop stop-opacity="1" stop-color="rgb(16.905212%, 50.634766%, 82.859802%)" offset="0.71875"/><stop stop-opacity="1" stop-color="rgb(16.798401%, 50.369263%, 82.719421%)" offset="0.726562"/><stop stop-opacity="1" stop-color="rgb(16.691589%, 50.105286%, 82.579041%)" offset="0.734375"/><stop stop-opacity="1" stop-color="rgb(16.584778%, 49.839783%, 82.440186%)" offset="0.742188"/><stop stop-opacity="1" stop-color="rgb(16.477966%, 49.57428%, 82.299805%)" offset="0.75"/><stop stop-opacity="1" stop-color="rgb(16.371155%, 49.308777%, 82.159424%)" offset="0.757813"/><stop stop-opacity="1" stop-color="rgb(16.264343%, 49.043274%, 82.019043%)" offset="0.765625"/><stop stop-opacity="1" stop-color="rgb(16.157532%, 48.779297%, 81.878662%)" offset="0.773438"/><stop stop-opacity="1" stop-color="rgb(16.052246%, 48.513794%, 81.738281%)" offset="0.78125"/><stop stop-opacity="1" stop-color="rgb(15.945435%, 48.248291%, 81.5979%)" offset="0.789063"/><stop stop-opacity="1" stop-color="rgb(15.838623%, 47.982788%, 81.45752%)" offset="0.796875"/><stop stop-opacity="1" stop-color="rgb(15.731812%, 47.717285%, 81.318665%)" offset="0.804688"/><stop stop-opacity="1" stop-color="rgb(15.625%, 47.453308%, 81.178284%)" offset="0.8125"/><stop stop-opacity="1" stop-color="rgb(15.518188%, 47.187805%, 81.037903%)" offset="0.820312"/><stop stop-opacity="1" stop-color="rgb(15.411377%, 46.922302%, 80.897522%)" offset="0.828125"/><stop stop-opacity="1" stop-color="rgb(15.304565%, 46.656799%, 80.757141%)" offset="0.835938"/><stop stop-opacity="1" stop-color="rgb(15.197754%, 46.392822%, 80.61676%)" offset="0.84375"/><stop stop-opacity="1" stop-color="rgb(15.090942%, 46.127319%, 80.476379%)" offset="0.851562"/><stop stop-opacity="1" stop-color="rgb(14.984131%, 45.861816%, 80.335999%)" offset="0.859375"/><stop stop-opacity="1" stop-color="rgb(14.877319%, 45.596313%, 80.195618%)" offset="0.867188"/><stop stop-opacity="1" stop-color="rgb(14.770508%, 45.330811%, 80.056763%)" offset="0.875"/><stop stop-opacity="1" stop-color="rgb(14.663696%, 45.066833%, 79.916382%)" offset="0.882812"/><stop stop-opacity="1" stop-color="rgb(14.556885%, 44.801331%, 79.776001%)" offset="0.890625"/><stop stop-opacity="1" stop-color="rgb(14.451599%, 44.535828%, 79.63562%)" offset="0.898438"/><stop stop-opacity="1" stop-color="rgb(14.344788%, 44.270325%, 79.495239%)" offset="0.90625"/><stop stop-opacity="1" stop-color="rgb(14.237976%, 44.004822%, 79.354858%)" offset="0.914063"/><stop stop-opacity="1" stop-color="rgb(14.131165%, 43.740845%, 79.214478%)" offset="0.921875"/><stop stop-opacity="1" stop-color="rgb(14.024353%, 43.475342%, 79.074097%)" offset="0.929688"/><stop stop-opacity="1" stop-color="rgb(13.917542%, 43.209839%, 78.933716%)" offset="0.9375"/><stop stop-opacity="1" stop-color="rgb(13.81073%, 42.944336%, 78.794861%)" offset="0.945312"/><stop stop-opacity="1" stop-color="rgb(13.703918%, 42.678833%, 78.65448%)" offset="0.953125"/><stop stop-opacity="1" stop-color="rgb(13.597107%, 42.414856%, 78.514099%)" offset="0.960937"/><stop stop-opacity="1" stop-color="rgb(13.490295%, 42.149353%, 78.373718%)" offset="0.96875"/><stop stop-opacity="1" stop-color="rgb(13.383484%, 41.88385%, 78.233337%)" offset="0.976562"/><stop stop-opacity="1" stop-color="rgb(13.276672%, 41.618347%, 78.092957%)" offset="0.984375"/><stop stop-opacity="1" stop-color="rgb(13.169861%, 41.35437%, 77.952576%)" offset="0.992188"/><stop stop-opacity="1" stop-color="rgb(13.063049%, 41.088867%, 77.812195%)" offset="1"/></linearGradient><clipPath id="511c6bd677"><path d="M 67.003906 178.851562 L 77.503906 178.851562 L 77.503906 189.351562 L 67.003906 189.351562 Z M 67.003906 178.851562 " clip-rule="nonzero"/></clipPath><clipPath id="63b1b660bf"><rect x="0" width="179" y="0" height="30"/></clipPath></defs><rect x="-37.5" width="450" fill="#ffffff" y="-37.499999" height="449.999989" fill-opacity="1"/><rect x="-37.5" width="450" fill="#ffffff" y="-37.499999" height="449.999989" fill-opacity="1"/><g transform="matrix(1, 0, 0, 1, 36, 139)"><g clip-path="url(#7bb4bdd91b)"><g clip-path="url(#17a8df1a6b)"><path fill="#009cdf" d="M 34.164062 43.570312 C 34.183594 41.066406 34.21875 21.898438 34.210938 21.707031 C 34.125 19.535156 33.242188 17.738281 31.441406 16.539062 C 28.339844 14.46875 21.515625 10.222656 21.285156 10.132812 C 21.023438 10.015625 20.773438 9.964844 20.542969 9.976562 C 20.335938 9.980469 20.152344 10.03125 19.992188 10.136719 C 19.582031 10.375 19.304688 10.871094 19.265625 11.550781 C 19.25 11.804688 19.304688 43.246094 19.289062 44.4375 C 19.285156 44.917969 19.386719 45.203125 19.863281 45.484375 C 21.710938 46.570312 23.519531 47.714844 25.304688 48.894531 C 26.347656 49.589844 27.300781 49.570312 28.328125 48.890625 C 29.867188 47.878906 31.394531 46.839844 33.007812 45.957031 C 34.046875 45.390625 34.46875 44.703125 34.164062 43.570312 Z M 34.164062 43.570312 " fill-opacity="1" fill-rule="nonzero"/></g><g clip-path="url(#d55273d890)"><path fill="#0145a6" d="M 50.148438 13.964844 C 50.175781 13.5625 50.175781 13.167969 50.148438 12.78125 C 50.148438 12.757812 50.148438 12.730469 50.148438 12.703125 C 50.007812 10.300781 48.867188 8.480469 46.882812 7.171875 C 44.695312 5.726562 42.519531 4.253906 40.273438 2.898438 C 39.355469 2.34375 38.472656 1.710938 37.445312 1.324219 C 37.4375 1.320312 37.429688 1.316406 37.425781 1.3125 C 37.113281 1.148438 36.8125 1.078125 36.542969 1.09375 C 36.105469 1.066406 35.796875 1.222656 35.613281 1.605469 C 35.417969 1.871094 35.292969 2.230469 35.269531 2.667969 C 35.261719 2.785156 35.4375 41.558594 35.398438 44.148438 C 35.609375 44.472656 35.828125 44.257812 36.015625 44.136719 C 38.9375 42.253906 41.859375 40.367188 44.777344 38.480469 C 47.585938 37.089844 49.847656 35.222656 50.128906 31.835938 C 50.242188 30.460938 50.148438 15.371094 50.148438 13.964844 Z M 50.148438 13.964844 " fill-opacity="1" fill-rule="nonzero"/></g><g clip-path="url(#28ed257383)"><g clip-path="url(#24396e72fd)"><path fill="#00d7ff" d="M 12.519531 20.496094 C 12.25 20.273438 3.847656 14.738281 3.019531 14.300781 C 1.980469 13.746094 1.09375 14.34375 1.023438 15.554688 C 1.003906 15.835938 1.09375 29.359375 1.101562 30.273438 C 0.988281 32.054688 1.523438 33.597656 2.78125 34.878906 C 3.390625 35.507812 14.613281 42.566406 14.621094 42.542969 C 14.808594 42.375 14.875 27.515625 14.75 26.679688 C 15.074219 24.234375 14.46875 22.121094 12.519531 20.496094 Z M 12.519531 20.496094 " fill-opacity="1" fill-rule="nonzero"/></g></g><g clip-path="url(#abebea8741)"><g clip-path="url(#752696b8a8)"><path fill="#009cdf" d="M 29.519531 41.941406 C 29.535156 39.621094 29.570312 21.855469 29.5625 21.679688 C 29.480469 19.664062 28.664062 18 26.996094 16.886719 C 24.121094 14.96875 17.792969 11.03125 17.582031 10.949219 C 17.339844 10.839844 17.109375 10.792969 16.894531 10.804688 C 16.703125 10.808594 16.53125 10.855469 16.386719 10.953125 C 16.003906 11.175781 15.746094 11.636719 15.710938 12.261719 C 15.695312 12.5 15.746094 41.640625 15.734375 42.746094 C 15.726562 43.191406 15.820312 43.453125 16.265625 43.714844 C 17.976562 44.71875 19.652344 45.78125 21.304688 46.875 C 22.273438 47.519531 23.15625 47.5 24.109375 46.871094 C 25.535156 45.933594 26.953125 44.972656 28.445312 44.152344 C 29.410156 43.625 29.800781 42.988281 29.519531 41.941406 Z M 29.519531 41.941406 " fill-opacity="1" fill-rule="nonzero"/></g></g><g clip-path="url(#1a1a0a9b64)"><path fill="#009cdf" d="M 32.457031 43.625 C 32.472656 41.121094 32.511719 21.953125 32.5 21.761719 C 32.414062 19.589844 31.53125 17.792969 29.730469 16.59375 C 26.632812 14.523438 19.804688 10.277344 19.578125 10.1875 C 19.316406 10.070312 19.066406 10.019531 18.835938 10.03125 C 18.625 10.035156 18.441406 10.085938 18.285156 10.191406 C 17.871094 10.429688 17.59375 10.925781 17.554688 11.605469 C 17.539062 11.859375 17.59375 43.300781 17.582031 44.492188 C 17.574219 44.972656 17.675781 45.257812 18.15625 45.539062 C 20 46.621094 21.808594 47.769531 23.59375 48.949219 C 24.636719 49.640625 25.589844 49.625 26.621094 48.945312 C 28.15625 47.933594 29.683594 46.894531 31.296875 46.011719 C 32.335938 45.445312 32.757812 44.757812 32.457031 43.625 Z M 32.457031 43.625 " fill-opacity="1" fill-rule="nonzero"/></g><g clip-path="url(#e8777f79af)"><path fill="#5800ff" d="M 48.4375 14.019531 C 48.464844 13.617188 48.46875 13.222656 48.441406 12.835938 C 48.441406 12.808594 48.441406 12.785156 48.441406 12.757812 C 48.296875 10.355469 47.15625 8.535156 45.175781 7.226562 C 42.984375 5.78125 40.8125 4.308594 38.566406 2.953125 C 37.648438 2.398438 36.761719 1.765625 35.734375 1.378906 C 35.730469 1.375 35.71875 1.371094 35.714844 1.367188 C 35.402344 1.199219 35.101562 1.132812 34.832031 1.148438 C 34.394531 1.121094 34.085938 1.277344 33.902344 1.660156 C 33.710938 1.925781 33.585938 2.285156 33.558594 2.722656 C 33.554688 2.839844 33.726562 41.613281 33.6875 44.203125 C 33.898438 44.527344 34.117188 44.3125 34.304688 44.191406 C 37.230469 42.308594 40.148438 40.421875 43.070312 38.535156 C 45.878906 37.144531 48.136719 35.277344 48.417969 31.890625 C 48.53125 30.515625 48.4375 15.425781 48.4375 14.019531 Z M 48.4375 14.019531 " fill-opacity="1" fill-rule="nonzero"/></g><g clip-path="url(#2feda697e9)"><path fill="#009cdf" d="M 38.25 46.535156 C 38.234375 49.039062 38.195312 68.207031 38.207031 68.398438 C 38.292969 70.570312 39.175781 72.367188 40.972656 73.566406 C 44.074219 75.636719 50.902344 79.882812 51.128906 79.972656 C 51.390625 80.089844 51.640625 80.140625 51.871094 80.128906 C 52.082031 80.125 52.265625 80.074219 52.421875 79.96875 C 52.835938 79.730469 53.113281 79.234375 53.152344 78.554688 C 53.164062 78.300781 53.113281 46.859375 53.125 45.667969 C 53.132812 45.1875 53.03125 44.902344 52.550781 44.621094 C 50.707031 43.539062 48.898438 42.390625 47.113281 41.210938 C 46.066406 40.519531 45.117188 40.535156 44.085938 41.214844 C 42.550781 42.226562 41.019531 43.265625 39.410156 44.148438 C 38.371094 44.714844 37.949219 45.402344 38.25 46.535156 Z M 38.25 46.535156 " fill-opacity="1" fill-rule="nonzero"/></g><g clip-path="url(#19d8f9a5c9)"><path fill="#0145a6" d="M 22.265625 76.140625 C 22.242188 76.542969 22.238281 76.9375 22.265625 77.324219 C 22.265625 77.351562 22.265625 77.375 22.265625 77.402344 C 22.410156 79.804688 23.550781 81.625 25.53125 82.933594 C 27.722656 84.378906 29.894531 85.851562 32.140625 87.207031 C 33.058594 87.761719 33.945312 88.394531 34.972656 88.78125 C 34.976562 88.785156 34.988281 88.789062 34.992188 88.792969 C 35.304688 88.960938 35.601562 89.027344 35.875 89.011719 C 36.3125 89.039062 36.617188 88.882812 36.800781 88.5 C 36.996094 88.234375 37.121094 87.875 37.148438 87.4375 C 37.152344 87.320312 36.980469 48.546875 37.019531 45.957031 C 36.808594 45.632812 36.589844 45.847656 36.402344 45.96875 C 33.476562 47.851562 30.558594 49.738281 27.636719 51.625 C 24.828125 53.015625 22.570312 54.882812 22.289062 58.269531 C 22.171875 59.644531 22.265625 74.734375 22.265625 76.140625 Z M 22.265625 76.140625 " fill-opacity="1" fill-rule="nonzero"/></g><g clip-path="url(#d58d891745)"><g clip-path="url(#ac5ff8a824)"><path fill="#00d7ff" d="M 59.894531 69.609375 C 60.160156 69.832031 68.5625 75.367188 69.390625 75.808594 C 70.433594 76.359375 71.320312 75.761719 71.390625 74.550781 C 71.40625 74.269531 71.316406 60.746094 71.308594 59.835938 C 71.421875 58.054688 70.890625 56.507812 69.632812 55.226562 C 69.019531 54.601562 57.800781 47.542969 57.789062 47.5625 C 57.601562 47.730469 57.535156 62.589844 57.660156 63.425781 C 57.339844 65.871094 57.945312 67.984375 59.894531 69.609375 Z M 59.894531 69.609375 " fill-opacity="1" fill-rule="nonzero"/></g></g><g clip-path="url(#16a3e2ac1f)"><g clip-path="url(#8a53a3a2c2)"><path fill="#009cdf" d="M 42.890625 48.164062 C 42.875 50.488281 42.839844 68.25 42.851562 68.429688 C 42.929688 70.441406 43.75 72.109375 45.417969 73.21875 C 48.289062 75.136719 54.617188 79.074219 54.828125 79.15625 C 55.070312 79.265625 55.300781 79.3125 55.515625 79.300781 C 55.710938 79.300781 55.882812 79.25 56.027344 79.152344 C 56.410156 78.929688 56.664062 78.472656 56.703125 77.84375 C 56.714844 77.609375 56.667969 48.464844 56.679688 47.359375 C 56.683594 46.917969 56.589844 46.652344 56.144531 46.390625 C 54.4375 45.386719 52.757812 44.328125 51.105469 43.230469 C 50.136719 42.589844 49.257812 42.605469 48.300781 43.234375 C 46.875 44.171875 45.460938 45.136719 43.964844 45.953125 C 43.003906 46.480469 42.613281 47.117188 42.890625 48.164062 Z M 42.890625 48.164062 " fill-opacity="1" fill-rule="nonzero"/></g></g><g clip-path="url(#14f93659fa)"><path fill="#009cdf" d="M 39.960938 46.476562 C 39.941406 48.980469 39.90625 68.148438 39.914062 68.339844 C 40 70.511719 40.882812 72.308594 42.683594 73.511719 C 45.785156 75.578125 52.609375 79.828125 52.839844 79.914062 C 53.101562 80.035156 53.351562 80.082031 53.582031 80.070312 C 53.789062 80.070312 53.972656 80.015625 54.132812 79.914062 C 54.542969 79.671875 54.820312 79.175781 54.859375 78.5 C 54.875 78.246094 54.820312 46.800781 54.835938 45.609375 C 54.839844 45.128906 54.738281 44.84375 54.261719 44.5625 C 52.417969 43.480469 50.605469 42.335938 48.824219 41.152344 C 47.777344 40.460938 46.824219 40.480469 45.796875 41.15625 C 44.257812 42.167969 42.730469 43.207031 41.117188 44.089844 C 40.078125 44.660156 39.65625 45.347656 39.960938 46.476562 Z M 39.960938 46.476562 " fill-opacity="1" fill-rule="nonzero"/></g></g></g><g clip-path="url(#08de11e5b1)"><g clip-path="url(#7b7460d195)"><g transform="matrix(1, 0, 0, 1, 63, 175)"><g clip-path="url(#6ab8f5e551)"><g clip-path="url(#dbc09df986)"><g clip-path="url(#151ae83b0e)"><path fill="#009cdf" d="M 0.160156 0.0078125 L 18.257812 0.0078125 L 18.257812 18.105469 L 0.160156 18.105469 Z M 0.160156 0.0078125 " fill-opacity="1" fill-rule="nonzero"/></g></g></g></g></g></g><g clip-path="url(#717040fb00)"><g clip-path="url(#0c0cf0645a)"><path stroke-linecap="butt" transform="matrix(0.75, 0, 0, 0.75, 63.159999, 175.006395)" fill="none" stroke-linejoin="miter" d="M 12.062711 0.00189012 C 5.401252 0.00189012 0.000209997 5.402932 0.000209997 12.064391 C 0.000209997 18.72585 5.401252 24.126892 12.062711 24.126892 C 18.72417 24.126892 24.125212 18.72585 24.125212 12.064391 C 24.125212 5.402932 18.72417 0.00189012 12.062711 0.00189012 Z M 12.062711 0.00189012 " stroke="url(#a91612ff32)" stroke-width="2" stroke-miterlimit="4"/></g></g><g clip-path="url(#511c6bd677)"><path fill="#ffffff" d="M 77.410156 183.351562 L 77.410156 184.753906 C 77.410156 184.984375 77.328125 185.179688 77.167969 185.34375 C 77.003906 185.503906 76.808594 185.585938 76.578125 185.585938 L 73.738281 185.585938 L 73.738281 188.425781 C 73.738281 188.652344 73.65625 188.851562 73.496094 189.011719 C 73.332031 189.175781 73.136719 189.257812 72.90625 189.257812 L 71.507812 189.257812 C 71.277344 189.257812 71.082031 189.175781 70.917969 189.011719 C 70.753906 188.851562 70.675781 188.652344 70.675781 188.425781 L 70.675781 185.585938 L 67.835938 185.585938 C 67.605469 185.585938 67.410156 185.503906 67.246094 185.34375 C 67.085938 185.179688 67.003906 184.984375 67.003906 184.753906 L 67.003906 183.351562 C 67.003906 183.125 67.085938 182.925781 67.246094 182.765625 C 67.410156 182.601562 67.605469 182.519531 67.835938 182.519531 L 70.675781 182.519531 L 70.675781 179.683594 C 70.675781 179.453125 70.753906 179.257812 70.917969 179.09375 C 71.082031 178.929688 71.277344 178.851562 71.507812 178.851562 L 72.90625 178.851562 C 73.136719 178.851562 73.332031 178.929688 73.496094 179.09375 C 73.65625 179.257812 73.738281 179.453125 73.738281 179.683594 L 73.738281 182.519531 L 76.578125 182.519531 C 76.808594 182.519531 77.003906 182.601562 77.167969 182.765625 C 77.328125 182.925781 77.410156 183.125 77.410156 183.351562 Z M 77.410156 183.351562 " fill-opacity="1" fill-rule="nonzero"/></g><g fill="#009cdf" fill-opacity="1"><g transform="translate(111.466447, 184.000066)"><g><path d="M 19.9375 0 L 13.125 0 L 0.421875 -38.5 L 7.859375 -38.5 L 16.015625 -12.46875 L 16.75 -9.453125 L 16.859375 -9.453125 L 17.421875 -12.5625 L 25.09375 -38.46875 L 32.53125 -38.46875 L 40.171875 -12.625 L 40.828125 -9.453125 L 40.90625 -9.453125 L 41.703125 -12.8125 L 49.765625 -38.5 L 57.234375 -38.5 L 44.53125 0 L 37.6875 0 L 28.828125 -28.828125 Z M 19.9375 0 "/></g></g></g><g fill="#009cdf" fill-opacity="1"><g transform="translate(169.092755, 184.000066)"><g><path d="M 15.640625 0.875 C 13.679688 0.875 11.863281 0.476562 10.1875 -0.3125 C 8.519531 -1.101562 7.066406 -2.207031 5.828125 -3.625 C 4.597656 -5.039062 3.644531 -6.679688 2.96875 -8.546875 C 2.289062 -10.410156 1.953125 -12.410156 1.953125 -14.546875 C 1.953125 -16.671875 2.296875 -18.660156 2.984375 -20.515625 C 3.671875 -22.378906 4.628906 -24.015625 5.859375 -25.421875 C 7.097656 -26.835938 8.546875 -27.945312 10.203125 -28.75 C 11.867188 -29.550781 13.671875 -29.953125 15.609375 -29.953125 C 17.992188 -29.953125 20.109375 -29.4375 21.953125 -28.40625 C 23.796875 -27.382812 25.179688 -25.96875 26.109375 -24.15625 L 26.109375 -29.078125 L 32.625 -29.078125 L 32.625 0 L 26.109375 0 L 26.109375 -4.890625 C 25.171875 -3.078125 23.78125 -1.660156 21.9375 -0.640625 C 20.101562 0.367188 18.003906 0.875 15.640625 0.875 Z M 17.28125 -5.453125 C 18.46875 -5.453125 19.578125 -5.679688 20.609375 -6.140625 C 21.648438 -6.609375 22.5625 -7.253906 23.34375 -8.078125 C 24.132812 -8.898438 24.742188 -9.863281 25.171875 -10.96875 C 25.609375 -12.070312 25.828125 -13.265625 25.828125 -14.546875 C 25.828125 -15.804688 25.601562 -16.988281 25.15625 -18.09375 C 24.71875 -19.195312 24.109375 -20.160156 23.328125 -20.984375 C 22.554688 -21.816406 21.648438 -22.460938 20.609375 -22.921875 C 19.578125 -23.390625 18.46875 -23.625 17.28125 -23.625 C 15.71875 -23.625 14.289062 -23.242188 13 -22.484375 C 11.707031 -21.734375 10.671875 -20.675781 9.890625 -19.3125 C 9.117188 -17.957031 8.734375 -16.367188 8.734375 -14.546875 C 8.734375 -12.660156 9.125 -11.035156 9.90625 -9.671875 C 10.695312 -8.316406 11.742188 -7.273438 13.046875 -6.546875 C 14.347656 -5.816406 15.757812 -5.453125 17.28125 -5.453125 Z M 17.28125 -5.453125 "/></g></g></g><g fill="#009cdf" fill-opacity="1"><g transform="translate(205.728037, 184.000066)"><g><path d="M 10.859375 0 L 4.015625 0 L 4.015625 -39.859375 L 10.859375 -39.859375 Z M 10.859375 0 "/></g></g></g><g fill="#0145a6" fill-opacity="1"><g transform="translate(220.59144, 184.000066)"><g><path d="M 11.625 0 L 4.578125 0 L 4.578125 -38.46875 L 10.71875 -38.46875 L 23.984375 -20.53125 L 37.34375 -38.46875 L 43.484375 -38.46875 L 43.484375 0 L 36.4375 0 L 36.4375 -27.1875 L 24.921875 -11.453125 L 23.03125 -11.453125 L 11.625 -27.25 Z M 11.625 0 "/></g></g></g><g fill="#0145a6" fill-opacity="1"><g transform="translate(268.627508, 184.000066)"><g><path d="M 17.09375 0.875 C 15.144531 0.875 13.335938 0.601562 11.671875 0.0625 C 10.015625 -0.46875 8.5625 -1.304688 7.3125 -2.453125 C 6.070312 -3.609375 5.109375 -5.097656 4.421875 -6.921875 C 3.734375 -8.753906 3.390625 -10.960938 3.390625 -13.546875 L 3.390625 -29.078125 L 10.1875 -29.078125 L 10.1875 -13.75 C 10.1875 -11.070312 10.757812 -9.023438 11.90625 -7.609375 C 13.0625 -6.191406 14.78125 -5.484375 17.0625 -5.484375 C 19.363281 -5.484375 21.078125 -6.195312 22.203125 -7.625 C 23.335938 -9.050781 23.90625 -11.09375 23.90625 -13.75 L 23.90625 -29.078125 L 30.71875 -29.078125 L 30.71875 -13.546875 C 30.71875 -10.960938 30.375 -8.753906 29.6875 -6.921875 C 29 -5.097656 28.03125 -3.609375 26.78125 -2.453125 C 25.539062 -1.304688 24.09375 -0.46875 22.4375 0.0625 C 20.789062 0.601562 19.007812 0.875 17.09375 0.875 Z M 17.09375 0.875 "/></g></g></g><g fill="#0145a6" fill-opacity="1"><g transform="translate(302.744999, 184.000066)"><g><path d="M 14.484375 0.875 C 12.347656 0.875 10.492188 0.585938 8.921875 0.015625 C 7.347656 -0.546875 6.046875 -1.304688 5.015625 -2.265625 C 3.992188 -3.222656 3.234375 -4.304688 2.734375 -5.515625 C 2.234375 -6.722656 1.984375 -7.96875 1.984375 -9.25 L 8.546875 -9.21875 C 8.597656 -7.90625 9.125 -6.796875 10.125 -5.890625 C 11.125 -4.992188 12.597656 -4.546875 14.546875 -4.546875 C 16.316406 -4.546875 17.617188 -4.882812 18.453125 -5.5625 C 19.296875 -6.25 19.71875 -7.140625 19.71875 -8.234375 C 19.71875 -9.066406 19.476562 -9.71875 19 -10.1875 C 18.53125 -10.65625 17.835938 -11.023438 16.921875 -11.296875 C 16.015625 -11.578125 14.898438 -11.8125 13.578125 -12 C 12.179688 -12.1875 10.851562 -12.476562 9.59375 -12.875 C 8.34375 -13.269531 7.238281 -13.816406 6.28125 -14.515625 C 5.320312 -15.210938 4.5625 -16.085938 4 -17.140625 C 3.445312 -18.203125 3.171875 -19.484375 3.171875 -20.984375 C 3.171875 -22.773438 3.585938 -24.34375 4.421875 -25.6875 C 5.265625 -27.03125 6.5 -28.078125 8.125 -28.828125 C 9.757812 -29.578125 11.753906 -29.953125 14.109375 -29.953125 C 16.453125 -29.953125 18.503906 -29.5625 20.265625 -28.78125 C 22.035156 -28 23.410156 -26.90625 24.390625 -25.5 C 25.367188 -24.09375 25.859375 -22.46875 25.859375 -20.625 L 19.15625 -20.6875 C 19.070312 -21.757812 18.609375 -22.640625 17.765625 -23.328125 C 16.929688 -24.015625 15.722656 -24.359375 14.140625 -24.359375 C 12.671875 -24.359375 11.597656 -24.039062 10.921875 -23.40625 C 10.242188 -22.78125 9.90625 -22.019531 9.90625 -21.125 C 9.90625 -20.414062 10.0625 -19.835938 10.375 -19.390625 C 10.695312 -18.953125 11.296875 -18.582031 12.171875 -18.28125 C 13.054688 -17.988281 14.328125 -17.710938 15.984375 -17.453125 C 17.492188 -17.222656 18.898438 -16.921875 20.203125 -16.546875 C 21.503906 -16.171875 22.640625 -15.65625 23.609375 -15 C 24.578125 -14.351562 25.332031 -13.515625 25.875 -12.484375 C 26.425781 -11.460938 26.703125 -10.175781 26.703125 -8.625 C 26.703125 -6.5 26.171875 -4.734375 25.109375 -3.328125 C 24.046875 -1.921875 22.59375 -0.867188 20.75 -0.171875 C 18.914062 0.523438 16.828125 0.875 14.484375 0.875 Z M 14.484375 0.875 "/></g></g></g><g transform="matrix(1, 0, 0, 1, 142, 182)"><g clip-path="url(#63b1b660bf)"><g fill="#231f20" fill-opacity="1"><g transform="translate(0.545772, 22.055066)"><g><path d="M 11.609375 -10.109375 C 11.609375 -9.367188 11.4375 -8.675781 11.09375 -8.03125 C 10.75 -7.382812 10.195312 -6.859375 9.4375 -6.453125 C 8.675781 -6.046875 7.703125 -5.84375 6.515625 -5.84375 L 3.90625 -5.84375 L 3.90625 0 L 1.546875 0 L 1.546875 -14.390625 L 6.515625 -14.390625 C 7.617188 -14.390625 8.550781 -14.195312 9.3125 -13.8125 C 10.082031 -13.4375 10.65625 -12.921875 11.03125 -12.265625 C 11.414062 -11.617188 11.609375 -10.898438 11.609375 -10.109375 Z M 6.515625 -7.765625 C 7.410156 -7.765625 8.078125 -7.96875 8.515625 -8.375 C 8.960938 -8.78125 9.1875 -9.359375 9.1875 -10.109375 C 9.1875 -11.679688 8.296875 -12.46875 6.515625 -12.46875 L 3.90625 -12.46875 L 3.90625 -7.765625 Z M 6.515625 -7.765625 "/></g></g></g><g fill="#231f20" fill-opacity="1"><g transform="translate(12.86464, 22.055066)"><g><path d="M 7.453125 -11.59375 C 8.316406 -11.59375 9.09375 -11.40625 9.78125 -11.03125 C 10.46875 -10.65625 11.003906 -10.101562 11.390625 -9.375 C 11.785156 -8.644531 11.984375 -7.765625 11.984375 -6.734375 L 11.984375 0 L 9.640625 0 L 9.640625 -6.375 C 9.640625 -7.394531 9.382812 -8.175781 8.875 -8.71875 C 8.363281 -9.269531 7.671875 -9.546875 6.796875 -9.546875 C 5.910156 -9.546875 5.207031 -9.269531 4.6875 -8.71875 C 4.164062 -8.175781 3.90625 -7.394531 3.90625 -6.375 L 3.90625 0 L 1.546875 0 L 1.546875 -15.3125 L 3.90625 -15.3125 L 3.90625 -10.078125 C 4.3125 -10.566406 4.820312 -10.941406 5.4375 -11.203125 C 6.050781 -11.460938 6.722656 -11.59375 7.453125 -11.59375 Z M 7.453125 -11.59375 "/></g></g></g><g fill="#231f20" fill-opacity="1"><g transform="translate(26.301526, 22.055066)"><g><path d="M 0.765625 -5.75 C 0.765625 -6.894531 1 -7.910156 1.46875 -8.796875 C 1.945312 -9.679688 2.597656 -10.367188 3.421875 -10.859375 C 4.242188 -11.347656 5.15625 -11.59375 6.15625 -11.59375 C 7.050781 -11.59375 7.832031 -11.414062 8.5 -11.0625 C 9.164062 -10.707031 9.703125 -10.269531 10.109375 -9.75 L 10.109375 -11.40625 L 12.484375 -11.40625 L 12.484375 0 L 10.109375 0 L 10.109375 -1.703125 C 9.703125 -1.160156 9.15625 -0.707031 8.46875 -0.34375 C 7.78125 0.0078125 6.992188 0.1875 6.109375 0.1875 C 5.128906 0.1875 4.226562 -0.0625 3.40625 -0.5625 C 2.59375 -1.070312 1.945312 -1.773438 1.46875 -2.671875 C 1 -3.578125 0.765625 -4.601562 0.765625 -5.75 Z M 10.109375 -5.71875 C 10.109375 -6.5 9.941406 -7.179688 9.609375 -7.765625 C 9.285156 -8.347656 8.863281 -8.789062 8.34375 -9.09375 C 7.820312 -9.394531 7.253906 -9.546875 6.640625 -9.546875 C 6.035156 -9.546875 5.46875 -9.394531 4.9375 -9.09375 C 4.414062 -8.800781 3.992188 -8.367188 3.671875 -7.796875 C 3.347656 -7.222656 3.1875 -6.539062 3.1875 -5.75 C 3.1875 -4.96875 3.347656 -4.28125 3.671875 -3.6875 C 3.992188 -3.09375 4.421875 -2.640625 4.953125 -2.328125 C 5.484375 -2.015625 6.046875 -1.859375 6.640625 -1.859375 C 7.253906 -1.859375 7.820312 -2.007812 8.34375 -2.3125 C 8.863281 -2.625 9.285156 -3.070312 9.609375 -3.65625 C 9.941406 -4.238281 10.109375 -4.925781 10.109375 -5.71875 Z M 10.109375 -5.71875 "/></g></g></g><g fill="#231f20" fill-opacity="1"><g transform="translate(40.338824, 22.055066)"><g><path d="M 3.90625 -9.75 C 4.257812 -10.332031 4.722656 -10.785156 5.296875 -11.109375 C 5.867188 -11.429688 6.546875 -11.59375 7.328125 -11.59375 L 7.328125 -9.15625 L 6.734375 -9.15625 C 5.804688 -9.15625 5.101562 -8.921875 4.625 -8.453125 C 4.144531 -7.984375 3.90625 -7.164062 3.90625 -6 L 3.90625 0 L 1.546875 0 L 1.546875 -11.40625 L 3.90625 -11.40625 Z M 3.90625 -9.75 "/></g></g></g><g fill="#231f20" fill-opacity="1"><g transform="translate(48.289152, 22.055066)"><g><path d="M 15.359375 -11.59375 C 16.253906 -11.59375 17.054688 -11.40625 17.765625 -11.03125 C 18.484375 -10.65625 19.046875 -10.101562 19.453125 -9.375 C 19.859375 -8.644531 20.0625 -7.765625 20.0625 -6.734375 L 20.0625 0 L 17.71875 0 L 17.71875 -6.375 C 17.71875 -7.394531 17.460938 -8.175781 16.953125 -8.71875 C 16.441406 -9.269531 15.742188 -9.546875 14.859375 -9.546875 C 13.984375 -9.546875 13.285156 -9.269531 12.765625 -8.71875 C 12.242188 -8.175781 11.984375 -7.394531 11.984375 -6.375 L 11.984375 0 L 9.640625 0 L 9.640625 -6.375 C 9.640625 -7.394531 9.382812 -8.175781 8.875 -8.71875 C 8.363281 -9.269531 7.671875 -9.546875 6.796875 -9.546875 C 5.910156 -9.546875 5.207031 -9.269531 4.6875 -8.71875 C 4.164062 -8.175781 3.90625 -7.394531 3.90625 -6.375 L 3.90625 0 L 1.546875 0 L 1.546875 -11.40625 L 3.90625 -11.40625 L 3.90625 -10.109375 C 4.300781 -10.578125 4.789062 -10.941406 5.375 -11.203125 C 5.96875 -11.460938 6.601562 -11.59375 7.28125 -11.59375 C 8.195312 -11.59375 9.015625 -11.398438 9.734375 -11.015625 C 10.453125 -10.628906 11.003906 -10.070312 11.390625 -9.34375 C 11.734375 -10.03125 12.269531 -10.578125 13 -10.984375 C 13.726562 -11.390625 14.515625 -11.59375 15.359375 -11.59375 Z M 15.359375 -11.59375 "/></g></g></g><g fill="#231f20" fill-opacity="1"><g transform="translate(69.800587, 22.055066)"><g><path d="M 0.765625 -5.75 C 0.765625 -6.894531 1 -7.910156 1.46875 -8.796875 C 1.945312 -9.679688 2.597656 -10.367188 3.421875 -10.859375 C 4.242188 -11.347656 5.15625 -11.59375 6.15625 -11.59375 C 7.050781 -11.59375 7.832031 -11.414062 8.5 -11.0625 C 9.164062 -10.707031 9.703125 -10.269531 10.109375 -9.75 L 10.109375 -11.40625 L 12.484375 -11.40625 L 12.484375 0 L 10.109375 0 L 10.109375 -1.703125 C 9.703125 -1.160156 9.15625 -0.707031 8.46875 -0.34375 C 7.78125 0.0078125 6.992188 0.1875 6.109375 0.1875 C 5.128906 0.1875 4.226562 -0.0625 3.40625 -0.5625 C 2.59375 -1.070312 1.945312 -1.773438 1.46875 -2.671875 C 1 -3.578125 0.765625 -4.601562 0.765625 -5.75 Z M 10.109375 -5.71875 C 10.109375 -6.5 9.941406 -7.179688 9.609375 -7.765625 C 9.285156 -8.347656 8.863281 -8.789062 8.34375 -9.09375 C 7.820312 -9.394531 7.253906 -9.546875 6.640625 -9.546875 C 6.035156 -9.546875 5.46875 -9.394531 4.9375 -9.09375 C 4.414062 -8.800781 3.992188 -8.367188 3.671875 -7.796875 C 3.347656 -7.222656 3.1875 -6.539062 3.1875 -5.75 C 3.1875 -4.96875 3.347656 -4.28125 3.671875 -3.6875 C 3.992188 -3.09375 4.421875 -2.640625 4.953125 -2.328125 C 5.484375 -2.015625 6.046875 -1.859375 6.640625 -1.859375 C 7.253906 -1.859375 7.820312 -2.007812 8.34375 -2.3125 C 8.863281 -2.625 9.285156 -3.070312 9.609375 -3.65625 C 9.941406 -4.238281 10.109375 -4.925781 10.109375 -5.71875 Z M 10.109375 -5.71875 "/></g></g></g><g fill="#231f20" fill-opacity="1"><g transform="translate(83.837885, 22.055066)"><g><path d="M 0.765625 -5.71875 C 0.765625 -6.882812 1 -7.910156 1.46875 -8.796875 C 1.945312 -9.691406 2.609375 -10.378906 3.453125 -10.859375 C 4.296875 -11.347656 5.265625 -11.59375 6.359375 -11.59375 C 7.734375 -11.59375 8.875 -11.265625 9.78125 -10.609375 C 10.6875 -9.953125 11.296875 -9.019531 11.609375 -7.8125 L 9.0625 -7.8125 C 8.851562 -8.375 8.519531 -8.8125 8.0625 -9.125 C 7.613281 -9.445312 7.046875 -9.609375 6.359375 -9.609375 C 5.390625 -9.609375 4.617188 -9.265625 4.046875 -8.578125 C 3.472656 -7.898438 3.1875 -6.945312 3.1875 -5.71875 C 3.1875 -4.488281 3.472656 -3.523438 4.046875 -2.828125 C 4.617188 -2.140625 5.390625 -1.796875 6.359375 -1.796875 C 7.722656 -1.796875 8.625 -2.398438 9.0625 -3.609375 L 11.609375 -3.609375 C 11.285156 -2.441406 10.664062 -1.515625 9.75 -0.828125 C 8.84375 -0.148438 7.710938 0.1875 6.359375 0.1875 C 5.265625 0.1875 4.296875 -0.0546875 3.453125 -0.546875 C 2.609375 -1.035156 1.945312 -1.722656 1.46875 -2.609375 C 1 -3.503906 0.765625 -4.539062 0.765625 -5.71875 Z M 0.765625 -5.71875 "/></g></g></g><g fill="#231f20" fill-opacity="1"><g transform="translate(96.260275, 22.055066)"><g><path d="M 12 -5.984375 C 12 -5.554688 11.972656 -5.171875 11.921875 -4.828125 L 3.203125 -4.828125 C 3.273438 -3.910156 3.613281 -3.175781 4.21875 -2.625 C 4.832031 -2.070312 5.578125 -1.796875 6.453125 -1.796875 C 7.722656 -1.796875 8.625 -2.328125 9.15625 -3.390625 L 11.703125 -3.390625 C 11.347656 -2.347656 10.71875 -1.488281 9.8125 -0.8125 C 8.914062 -0.144531 7.796875 0.1875 6.453125 0.1875 C 5.367188 0.1875 4.394531 -0.0546875 3.53125 -0.546875 C 2.664062 -1.035156 1.988281 -1.722656 1.5 -2.609375 C 1.007812 -3.503906 0.765625 -4.539062 0.765625 -5.71875 C 0.765625 -6.882812 1 -7.910156 1.46875 -8.796875 C 1.945312 -9.691406 2.617188 -10.378906 3.484375 -10.859375 C 4.347656 -11.347656 5.335938 -11.59375 6.453125 -11.59375 C 7.535156 -11.59375 8.492188 -11.359375 9.328125 -10.890625 C 10.171875 -10.421875 10.828125 -9.757812 11.296875 -8.90625 C 11.765625 -8.0625 12 -7.085938 12 -5.984375 Z M 9.546875 -6.734375 C 9.523438 -7.597656 9.210938 -8.289062 8.609375 -8.8125 C 8.003906 -9.34375 7.253906 -9.609375 6.359375 -9.609375 C 5.546875 -9.609375 4.847656 -9.347656 4.265625 -8.828125 C 3.679688 -8.304688 3.335938 -7.609375 3.234375 -6.734375 Z M 9.546875 -6.734375 "/></g></g></g><g fill="#231f20" fill-opacity="1"><g transform="translate(109.034631, 22.055066)"><g><path d="M 11.890625 -11.40625 L 11.890625 0 L 9.515625 0 L 9.515625 -1.34375 C 9.148438 -0.875 8.664062 -0.503906 8.0625 -0.234375 C 7.457031 0.0351562 6.820312 0.171875 6.15625 0.171875 C 5.25 0.171875 4.441406 -0.015625 3.734375 -0.390625 C 3.023438 -0.765625 2.46875 -1.316406 2.0625 -2.046875 C 1.65625 -2.773438 1.453125 -3.660156 1.453125 -4.703125 L 1.453125 -11.40625 L 3.78125 -11.40625 L 3.78125 -5.046875 C 3.78125 -4.023438 4.035156 -3.242188 4.546875 -2.703125 C 5.066406 -2.160156 5.765625 -1.890625 6.640625 -1.890625 C 7.523438 -1.890625 8.222656 -2.160156 8.734375 -2.703125 C 9.253906 -3.242188 9.515625 -4.023438 9.515625 -5.046875 L 9.515625 -11.40625 Z M 11.890625 -11.40625 "/></g></g></g><g fill="#231f20" fill-opacity="1"><g transform="translate(122.471511, 22.055066)"><g><path d="M 4.3125 -9.484375 L 4.3125 -3.171875 C 4.3125 -2.742188 4.410156 -2.4375 4.609375 -2.25 C 4.804688 -2.0625 5.144531 -1.96875 5.625 -1.96875 L 7.078125 -1.96875 L 7.078125 0 L 5.21875 0 C 4.15625 0 3.335938 -0.242188 2.765625 -0.734375 C 2.203125 -1.234375 1.921875 -2.046875 1.921875 -3.171875 L 1.921875 -9.484375 L 0.578125 -9.484375 L 0.578125 -11.40625 L 1.921875 -11.40625 L 1.921875 -14.25 L 4.3125 -14.25 L 4.3125 -11.40625 L 7.078125 -11.40625 L 7.078125 -9.484375 Z M 4.3125 -9.484375 "/></g></g></g><g fill="#231f20" fill-opacity="1"><g transform="translate(130.1734, 22.055066)"><g><path d="M 2.75 -12.921875 C 2.320312 -12.921875 1.960938 -13.0625 1.671875 -13.34375 C 1.378906 -13.632812 1.234375 -14 1.234375 -14.4375 C 1.234375 -14.863281 1.378906 -15.21875 1.671875 -15.5 C 1.960938 -15.789062 2.320312 -15.9375 2.75 -15.9375 C 3.164062 -15.9375 3.519531 -15.789062 3.8125 -15.5 C 4.101562 -15.21875 4.25 -14.863281 4.25 -14.4375 C 4.25 -14 4.101562 -13.632812 3.8125 -13.34375 C 3.519531 -13.0625 3.164062 -12.921875 2.75 -12.921875 Z M 3.90625 -11.40625 L 3.90625 0 L 1.546875 0 L 1.546875 -11.40625 Z M 3.90625 -11.40625 "/></g></g></g><g fill="#231f20" fill-opacity="1"><g transform="translate(135.639253, 22.055066)"><g><path d="M 0.765625 -5.71875 C 0.765625 -6.882812 1 -7.910156 1.46875 -8.796875 C 1.945312 -9.691406 2.609375 -10.378906 3.453125 -10.859375 C 4.296875 -11.347656 5.265625 -11.59375 6.359375 -11.59375 C 7.734375 -11.59375 8.875 -11.265625 9.78125 -10.609375 C 10.6875 -9.953125 11.296875 -9.019531 11.609375 -7.8125 L 9.0625 -7.8125 C 8.851562 -8.375 8.519531 -8.8125 8.0625 -9.125 C 7.613281 -9.445312 7.046875 -9.609375 6.359375 -9.609375 C 5.390625 -9.609375 4.617188 -9.265625 4.046875 -8.578125 C 3.472656 -7.898438 3.1875 -6.945312 3.1875 -5.71875 C 3.1875 -4.488281 3.472656 -3.523438 4.046875 -2.828125 C 4.617188 -2.140625 5.390625 -1.796875 6.359375 -1.796875 C 7.722656 -1.796875 8.625 -2.398438 9.0625 -3.609375 L 11.609375 -3.609375 C 11.285156 -2.441406 10.664062 -1.515625 9.75 -0.828125 C 8.84375 -0.148438 7.710938 0.1875 6.359375 0.1875 C 5.265625 0.1875 4.296875 -0.0546875 3.453125 -0.546875 C 2.609375 -1.035156 1.945312 -1.722656 1.46875 -2.609375 C 1 -3.503906 0.765625 -4.539062 0.765625 -5.71875 Z M 0.765625 -5.71875 "/></g></g></g><g fill="#231f20" fill-opacity="1"><g transform="translate(148.061642, 22.055066)"><g><path d="M 0.765625 -5.75 C 0.765625 -6.894531 1 -7.910156 1.46875 -8.796875 C 1.945312 -9.679688 2.597656 -10.367188 3.421875 -10.859375 C 4.242188 -11.347656 5.15625 -11.59375 6.15625 -11.59375 C 7.050781 -11.59375 7.832031 -11.414062 8.5 -11.0625 C 9.164062 -10.707031 9.703125 -10.269531 10.109375 -9.75 L 10.109375 -11.40625 L 12.484375 -11.40625 L 12.484375 0 L 10.109375 0 L 10.109375 -1.703125 C 9.703125 -1.160156 9.15625 -0.707031 8.46875 -0.34375 C 7.78125 0.0078125 6.992188 0.1875 6.109375 0.1875 C 5.128906 0.1875 4.226562 -0.0625 3.40625 -0.5625 C 2.59375 -1.070312 1.945312 -1.773438 1.46875 -2.671875 C 1 -3.578125 0.765625 -4.601562 0.765625 -5.75 Z M 10.109375 -5.71875 C 10.109375 -6.5 9.941406 -7.179688 9.609375 -7.765625 C 9.285156 -8.347656 8.863281 -8.789062 8.34375 -9.09375 C 7.820312 -9.394531 7.253906 -9.546875 6.640625 -9.546875 C 6.035156 -9.546875 5.46875 -9.394531 4.9375 -9.09375 C 4.414062 -8.800781 3.992188 -8.367188 3.671875 -7.796875 C 3.347656 -7.222656 3.1875 -6.539062 3.1875 -5.75 C 3.1875 -4.96875 3.347656 -4.28125 3.671875 -3.6875 C 3.992188 -3.09375 4.421875 -2.640625 4.953125 -2.328125 C 5.484375 -2.015625 6.046875 -1.859375 6.640625 -1.859375 C 7.253906 -1.859375 7.820312 -2.007812 8.34375 -2.3125 C 8.863281 -2.625 9.285156 -3.070312 9.609375 -3.65625 C 9.941406 -4.238281 10.109375 -4.925781 10.109375 -5.71875 Z M 10.109375 -5.71875 "/></g></g></g><g fill="#231f20" fill-opacity="1"><g transform="translate(162.09894, 22.055066)"><g><path d="M 3.90625 -15.3125 L 3.90625 0 L 1.546875 0 L 1.546875 -15.3125 Z M 3.90625 -15.3125 "/></g></g></g><g fill="#231f20" fill-opacity="1"><g transform="translate(167.564793, 22.055066)"><g><path d="M 5.6875 0.1875 C 4.789062 0.1875 3.988281 0.0234375 3.28125 -0.296875 C 2.570312 -0.617188 2.007812 -1.0625 1.59375 -1.625 C 1.175781 -2.1875 0.957031 -2.8125 0.9375 -3.5 L 3.375 -3.5 C 3.414062 -3.019531 3.644531 -2.613281 4.0625 -2.28125 C 4.488281 -1.957031 5.019531 -1.796875 5.65625 -1.796875 C 6.3125 -1.796875 6.820312 -1.921875 7.1875 -2.171875 C 7.5625 -2.429688 7.75 -2.765625 7.75 -3.171875 C 7.75 -3.597656 7.539062 -3.914062 7.125 -4.125 C 6.71875 -4.332031 6.078125 -4.554688 5.203125 -4.796875 C 4.335938 -5.035156 3.632812 -5.265625 3.09375 -5.484375 C 2.5625 -5.703125 2.097656 -6.039062 1.703125 -6.5 C 1.316406 -6.957031 1.125 -7.554688 1.125 -8.296875 C 1.125 -8.910156 1.300781 -9.46875 1.65625 -9.96875 C 2.007812 -10.46875 2.519531 -10.863281 3.1875 -11.15625 C 3.863281 -11.445312 4.632812 -11.59375 5.5 -11.59375 C 6.800781 -11.59375 7.847656 -11.265625 8.640625 -10.609375 C 9.429688 -9.953125 9.859375 -9.054688 9.921875 -7.921875 L 7.5625 -7.921875 C 7.519531 -8.429688 7.3125 -8.835938 6.9375 -9.140625 C 6.5625 -9.453125 6.054688 -9.609375 5.421875 -9.609375 C 4.804688 -9.609375 4.332031 -9.488281 4 -9.25 C 3.664062 -9.019531 3.5 -8.710938 3.5 -8.328125 C 3.5 -8.015625 3.609375 -7.753906 3.828125 -7.546875 C 4.046875 -7.347656 4.3125 -7.1875 4.625 -7.0625 C 4.945312 -6.945312 5.421875 -6.800781 6.046875 -6.625 C 6.867188 -6.40625 7.546875 -6.179688 8.078125 -5.953125 C 8.609375 -5.722656 9.066406 -5.382812 9.453125 -4.9375 C 9.847656 -4.5 10.050781 -3.914062 10.0625 -3.1875 C 10.0625 -2.539062 9.878906 -1.960938 9.515625 -1.453125 C 9.160156 -0.941406 8.65625 -0.539062 8 -0.25 C 7.34375 0.0390625 6.570312 0.1875 5.6875 0.1875 Z M 5.6875 0.1875 "/></g></g></g></g></g></svg>